<?xml version="1.0" encoding="utf-8"?>
<!-- Generator: Adobe Illustrator 22.1.0, SVG Export Plug-In . SVG Version: 6.00 Build 0)  -->
<svg version="1.1" xmlns="http://www.w3.org/2000/svg" xmlns:xlink="http://www.w3.org/1999/xlink" x="0px" y="0px"
	 viewBox="0 0 566.9 566.9" style="enable-background:new 0 0 566.9 566.9;" xml:space="preserve">
<style type="text/css">
	.st0{fill:#FFFFFF;}
</style>
<g id="Слой_1">
</g>
<g id="Слой_2">
	<g>
		<path d="M31.6,224.8c3.2-3.2,6.2-6.3,9.2-9.3c8.3-8.2,16.6-16.3,24.8-24.5c3.6-3.5,7-7.2,10.9-10.5c3.4-2.9,6.7-5.8,9.9-9
			c4.8-4.8,9.7-9.6,14.6-14.4c8.9-8.8,17.8-17.6,26.6-26.4c1.7-1.7,3.4-3.4,5.1-5c3.6-3.4,7.4-6.6,10.9-10c4.5-4.3,9-8.7,13.5-13.1
			c0.5-0.4,1-0.8,1.4-1.3c1.1-1.5,2.7-1.9,4.4-1.9c35.3,0,70.5,0,105.8,0c43.8,0,87.5,0,131.3,0c1.1,0,2.2,0.1,3.4,0
			c2.2-0.2,3.9,0.5,5.5,2.2c4.9,5,9.9,9.9,14.9,14.7c2.6,2.5,5.6,4.7,8.3,7.3c10.8,10.6,21.6,21.3,32.4,31.9
			c7.3,7.2,14.5,14.8,22.1,21.6c13.6,12.1,26.1,25.3,39.1,38c3.2,3.2,6.5,6.3,9.7,9.5c-0.3,0.6-0.4,1-0.7,1.2
			c-2.1,2.1-4.2,4.1-6.4,6.1c-1.9,1.8-4,3.4-5.9,5.2c-3.5,3.3-7.1,6.6-10.5,10c-8.3,8.2-16.6,16.5-24.9,24.7
			c-1.8,1.7-3.5,3.5-5.3,5.2c-3.6,3.3-7.3,6.4-10.8,9.8c-3.9,3.7-7.7,7.5-11.6,11.3c-9.5,9.3-18.9,18.7-28.5,28
			c-2.6,2.5-5.5,4.5-8.1,7c-4.3,4.1-8.4,8.4-12.7,12.6c-9.7,9.6-19,19.6-29.3,28.5c-11.2,9.8-21.2,20.8-32,31
			c-5.1,4.8-10,9.8-15.1,14.7c-2.2,2.1-4.8,4-7,6.1c-5,4.8-10,9.8-14.9,14.7c-8.5,8.3-16.9,16.7-25.5,25c-2.3,2.3-3.3,2.2-5.6,0
			c-6.2-6.1-12.3-12.3-18.6-18.4c-2.2-2.1-4.6-3.9-6.9-5.9c-2.6-2.4-5.1-4.8-7.6-7.3c-8.5-8.3-16.9-16.7-25.4-25
			c-5.3-5.2-10.3-10.7-15.8-15.5c-6.7-5.8-12.9-12.1-19.3-18.2c-6.1-5.9-12-11.9-18-17.8c-5.2-5.2-10.2-10.7-15.8-15.5
			c-13.1-11.2-24.7-23.7-37-35.7c-5.2-5-10.1-10.3-15.5-15.2c-2.8-2.5-5.8-4.7-8.5-7.4c-9.5-9.4-19-18.9-28.6-28.3
			c-5.7-5.6-11.2-11.5-17.2-16.8c-4.7-4.1-9.2-8.4-13.7-12.6C32.4,225.8,32.1,225.4,31.6,224.8z M69.1,224.4
			c1.9,2.1,3.5,3.8,5.1,5.4c4.9,4.9,9.7,9.8,14.7,14.6c2.8,2.7,5.9,5,8.7,7.7c11.5,11.2,22.8,22.5,34.3,33.7c5,4.9,9.9,9.8,15,14.6
			c2.1,2,4.5,3.8,6.7,5.8c3.8,3.6,7.6,7.3,11.3,11c7.2,7.1,14.3,14.3,21.5,21.4c4.3,4.3,8.7,8.6,13.1,12.8c2.4,2.3,5.1,4.4,7.5,6.6
			c1.8,1.6,3.4,3.3,5.2,5c8.9,8.8,17.8,17.6,26.7,26.4c5,4.9,10,9.8,15,14.6c1.6,1.5,3.5,2.7,5.1,4.3c7.3,7.1,14.6,14.3,21.9,21.4
			c1.9,1.8,3.1,1.9,4.9,0.1c2.5-2.4,4.9-4.9,7.4-7.4c7.3-7.2,14.5-14.5,21.9-21.6c5.3-5.2,10.8-10.1,16.2-15.3
			c4.7-4.4,9.3-8.9,13.9-13.3c6-5.9,11.9-11.9,18-17.8c5.9-5.7,11.6-11.6,18-16.8c2.5-2,4.7-4.5,7-6.8c7.8-7.7,15.5-15.5,23.4-23.1
			c5.4-5.2,10.5-10.7,16.3-15.4c3.7-3,7-6.4,10.4-9.8c7.8-7.6,15.5-15.3,23.2-23c5.3-5.2,10.7-10.3,16.3-15.2
			c4.7-4,8.9-8.6,13.3-12.9c2.2-2.2,4.3-4.4,6.7-6.7c-1-1-1.9-1.8-2.8-2.7c-7.9-7.8-15.9-15.5-23.8-23.3c-7.1-7-14.1-14.2-21.2-21.2
			c-4.3-4.3-8.7-8.6-13.1-12.8c-2.4-2.3-5.1-4.3-7.5-6.7c-10.6-10.4-21.2-20.8-31.7-31.2c-1.2-1.1-2.5-1.9-4.3-1.7
			c-1,0.1-2.1,0-3.1,0c-71.3,0-142.5,0-213.8,0c-1,0-2.1,0.1-3.1,0c-1.7-0.2-3,0.5-4.1,1.6c-4.7,4.6-9.2,9.2-13.9,13.8
			c-6.5,6.3-13.2,12.6-19.7,18.9c-3.7,3.5-7.4,7-11,10.6c-7.2,7.1-14.4,14.2-21.5,21.3c-10.1,10-20.2,20-30.3,29.9
			C71.6,222.2,70.4,223.3,69.1,224.4z"/>
		<path class="st0" d="M69.1,224.4c1.2-1.1,2.5-2.2,3.7-3.4c10.1-10,20.2-19.9,30.3-29.9c7.2-7.1,14.3-14.2,21.5-21.3
			c3.6-3.6,7.3-7,11-10.6c6.6-6.3,13.2-12.5,19.7-18.9c4.7-4.5,9.3-9.2,13.9-13.8c1.1-1.1,2.4-1.8,4.1-1.6c1,0.1,2.1,0,3.1,0
			c71.3,0,142.5,0,213.8,0c1,0,2.1,0.1,3.1,0c1.8-0.2,3.1,0.6,4.3,1.7c10.6,10.4,21.1,20.9,31.7,31.2c2.4,2.3,5.1,4.4,7.5,6.7
			c4.4,4.2,8.8,8.5,13.1,12.8c7.1,7.1,14.1,14.2,21.2,21.2c7.9,7.8,15.8,15.6,23.8,23.3c0.9,0.9,1.8,1.8,2.8,2.7
			c-2.3,2.4-4.5,4.6-6.7,6.7c-4.4,4.3-8.6,8.9-13.3,12.9c-5.6,4.9-11,9.9-16.3,15.2c-7.7,7.7-15.5,15.4-23.2,23
			c-3.4,3.3-6.7,6.8-10.4,9.8c-5.9,4.7-11,10.2-16.3,15.4c-7.9,7.6-15.6,15.4-23.4,23.1c-2.3,2.3-4.5,4.7-7,6.8
			c-6.4,5.2-12.1,11.1-18,16.8c-6,5.9-12,11.9-18,17.8c-4.6,4.5-9.2,8.9-13.9,13.3c-5.4,5.1-10.9,10.1-16.2,15.3
			c-7.4,7.1-14.6,14.4-21.9,21.6c-2.5,2.5-4.9,4.9-7.4,7.4c-1.8,1.8-3,1.7-4.9-0.1c-7.3-7.2-14.6-14.3-21.9-21.4
			c-1.6-1.5-3.5-2.7-5.1-4.3c-5-4.8-10-9.7-15-14.6c-8.9-8.8-17.8-17.6-26.7-26.4c-1.7-1.7-3.4-3.4-5.2-5c-2.5-2.2-5.1-4.3-7.5-6.6
			c-4.4-4.2-8.8-8.5-13.1-12.8c-7.2-7.1-14.3-14.3-21.5-21.4c-3.7-3.7-7.5-7.4-11.3-11c-2.1-2-4.6-3.7-6.7-5.8
			c-5-4.8-10-9.7-15-14.6c-11.4-11.2-22.8-22.5-34.3-33.7c-2.8-2.7-5.9-5.1-8.7-7.7c-5-4.8-9.8-9.7-14.7-14.6
			C72.6,228.2,71.1,226.5,69.1,224.4z M319.8,236.2c7.2,0,14.4,0,21.6,0c2.4,0,2.6,0.3,2.6,2.6c0,6.9,0,13.8,0,20.6
			c0,0.6,0,1.1,0.1,1.7c0.1,1,0.6,1.6,1.6,1.7c0.7,0.1,1.4,0.1,2.2,0.1c5.8,0,11.5-0.1,17.3,0c4.1,0.1,4.7,0.4,4.7-4.6
			c-0.1-6.6,0-13.3,0-19.9c0-1.9,0.2-2.1,2-2.2c0.6,0,1.1,0,1.7,0c4,0,8,0,12,0c2.4,0,2.8-0.3,2.8-2.8c0-4.2,0-8.3,0-12.5
			c0-2.8,0-5.6,0-8.4c0-2.4-0.4-2.8-2.8-2.8c-1.4,0-2.7,0-4.1,0c-27.3,0-54.6,0-81.8,0c-2.9,0-3.5-0.4-4.3-3.1
			c-1.4-4.6-3.5-8.9-5.9-13.1c-4.2-7.2-9.5-13.4-16.2-18.4c-4.1-3.1-8.6-5.5-13.4-7.3c-3.6-1.3-7.3-2.1-11.1-2.8
			c-4.4-0.7-8.7-1.2-13.1-0.6c-4.6,0.6-9.1,1.3-13.6,2.8c-5.7,1.9-11,4.6-15.9,8.1c-7.5,5.3-13.3,12.1-17.7,20.2
			c-2.8,5.1-4.8,10.5-5.8,16.2c-2,12.3-0.9,24.3,4.7,35.8c2.9,6,6.5,11.3,11.2,16c5,5.1,10.8,9.2,17.3,12.2
			c4.5,2.1,9.1,3.8,13.9,4.4c8.4,1.2,16.9,1.2,25.2-1.1c6.2-1.7,11.9-4.2,17.1-7.8c11.5-8.1,19-19.2,23.5-32.4
			c0.8-2.4,1.2-2.8,3.7-2.8C305.9,236.2,312.9,236.2,319.8,236.2z"/>
		<path d="M319.8,236.2c-7,0-13.9,0-20.9,0c-2.6,0-2.9,0.3-3.7,2.8c-4.5,13.2-12,24.3-23.5,32.4c-5.2,3.6-10.9,6.1-17.1,7.8
			c-8.4,2.3-16.8,2.2-25.2,1.1c-4.8-0.7-9.4-2.3-13.9-4.4c-6.5-3.1-12.3-7.1-17.3-12.2c-4.6-4.7-8.3-10.1-11.2-16
			c-5.6-11.4-6.7-23.4-4.7-35.8c0.9-5.7,3-11.1,5.8-16.2c4.4-8.1,10.3-14.8,17.7-20.2c4.9-3.5,10.2-6.2,15.9-8.1
			c4.4-1.5,9-2.2,13.6-2.8c4.4-0.5,8.8-0.1,13.1,0.6c3.8,0.6,7.6,1.4,11.1,2.8c4.8,1.8,9.3,4.2,13.4,7.3c6.7,5,12,11.2,16.2,18.4
			c2.4,4.1,4.5,8.4,5.9,13.1c0.8,2.7,1.4,3.1,4.3,3.1c27.3,0,54.6,0,81.8,0c1.4,0,2.7,0,4.1,0c2.3,0,2.8,0.4,2.8,2.8
			c0,2.8,0,5.6,0,8.4c0,4.2,0,8.3,0,12.5c0,2.4-0.4,2.8-2.8,2.8c-4,0-8,0-12,0c-0.6,0-1.1,0-1.7,0c-1.8,0.1-2,0.3-2,2.2
			c0,6.6,0,13.3,0,19.9c0.1,5-0.6,4.7-4.7,4.6c-5.8-0.1-11.5,0-17.3,0c-0.7,0-1.4,0-2.2-0.1c-1-0.1-1.6-0.7-1.6-1.7
			c0-0.6-0.1-1.1-0.1-1.7c0-6.9,0-13.8,0-20.6c0-2.4-0.2-2.6-2.6-2.6C334.2,236.2,327,236.2,319.8,236.2z M239.5,190.5
			c-17.2-0.4-31.7,13.9-31.7,32.1c0,17.7,13.8,32.1,31.5,32.1c18.1,0,32.2-14.4,32.3-32C271.6,204.8,257.1,190.3,239.5,190.5z"/>
		<path class="st0" d="M239.5,190.5c17.6-0.2,32.2,14.3,32.1,32.1c-0.1,17.7-14.1,32-32.3,32c-17.7,0-31.5-14.3-31.5-32.1
			C207.8,204.5,222.3,190.1,239.5,190.5z"/>
	</g>
</g>
</svg>
