<?xml version="1.0" encoding="UTF-8" standalone="no"?>
<svg
   xmlns:dc="http://purl.org/dc/elements/1.1/"
   xmlns:cc="http://creativecommons.org/ns#"
   xmlns:rdf="http://www.w3.org/1999/02/22-rdf-syntax-ns#"
   xmlns:svg="http://www.w3.org/2000/svg"
   xmlns="http://www.w3.org/2000/svg"
   viewBox="0 0 4266.6665 2666.6667"
   height="2666.6667"
   width="4266.6665"
   xml:space="preserve"
   id="svg2"
   version="1.1"><metadata
     id="metadata8"><rdf:RDF><cc:Work
         rdf:about=""><dc:format>image/svg+xml</dc:format><dc:type
           rdf:resource="http://purl.org/dc/dcmitype/StillImage" /></cc:Work></rdf:RDF></metadata><defs
     id="defs6" /><g
     transform="matrix(1.3333333,0,0,-1.3333333,0,2666.6667)"
     id="g10"><g
       transform="scale(0.1)"
       id="g12"><g
         transform="scale(1.96319)"
         id="g14"><path
           id="path16"
           style="fill:transparent;fill-opacity:1;fill-rule:nonzero;stroke:none"
           d="M 16300,0 H 0 V 10187.5 H 16300 V 0" /></g><g
         transform="scale(1.79231)"
         id="g18"><path
           id="path20"
           style="fill:#ebf3fa;fill-opacity:1;fill-rule:nonzero;stroke:none"
           d="m 1896.15,1141.66 c 0,0 -1790.793,1922.72 -302.85,4004.39 1320.21,1846.97 2859.43,1720.72 3988.72,971.2 481,-319.23 1867.76,-39.34 3048.03,1840.03 1609.65,2562.92 7189.05,1008.51 6171.75,-2934.65 -492.4,-1908.21 1498.2,-1977.56 483.9,-3884.99 l -13389.55,4.02" /></g><g
         transform="scale(1.81918)"
         id="g22"><path
           id="path24"
           style="fill:#dfebfd;fill-opacity:1;fill-rule:nonzero;stroke:none"
           d="m 16175.8,3639.28 c -124.3,458.72 -898.3,315.36 -898.3,315.36 0,0 -525.7,-802.78 -678.5,-821.85 -153,-19.13 315.3,774.08 315.3,774.08 -296.3,28.64 -1051.2,-334.49 -1051.2,-334.49 0,0 47.7,-936.52 -105.1,-917.44 -153,19.13 0,831.42 0,831.42 -286.7,-85.98 -554.3,-420.47 -554.3,-420.47 -334.5,-544.75 382.2,-946.09 382.2,-946.09 0,0 9.6,-324.92 -191.1,-697.62 v -0.05 c 0,0 -45.3,-68.77 -91.3,-185.75 h 78.1 c 6.4,20.95 13.5,41.23 21.3,60.69 0,0.11 0,0.22 0.1,0.33 0.1,0.27 0.2,0.55 0.4,0.83 5.3,12.09 13,29.29 22.6,50.18 0,0.06 0,0.06 0,0.11 0,0.06 0.1,0.06 0.1,0.11 23.8,46.73 40,81.25 50.2,106.2 0,0.06 0.1,0.17 0.1,0.22 71.5,146.77 174.6,337.96 243.3,378.03 0,0 -8.6,12.2 -16.7,35.84 5.3,-11.43 10.9,-23.31 16.7,-35.84 133.8,-286.67 802.8,-334.49 1175.5,-258.03 372.7,76.46 210.2,181.57 9.6,352.19 -200.7,170.63 -621.2,125.67 -745.5,192.56 -124.2,66.9 57.4,133.8 305.9,114.67 248.4,-19.13 372.7,-267.59 774,-305.8 401.4,-38.26 707.2,716.7 707.2,716.7 -277.1,-85.97 -774.1,66.9 -793.2,162.49 -19.1,95.54 716.7,86.03 831.4,114.67 114.7,28.69 315.4,258.03 191.2,716.75" /></g><path
         id="path26"
         style="fill:#afcdfb;fill-opacity:1;fill-rule:nonzero;stroke:none"
         d="m 10235.5,6392.8 c 0,0 62.1,-495.7 -30.8,-501.6 -93,-5.9 -29.5,557.4 -29.5,557.4 0,0 -441.97,247 -621.76,240.7 0,0 253.12,-495.9 161.58,-478.7 -91.54,17.2 -378.9,521 -378.9,521 0,0 -461.69,115.2 -553.64,-157 -91.95,-272.1 20.63,-417.9 88.76,-439.5 68.12,-21.5 512.41,-43 497.34,-100 -15.07,-56.9 -320.54,-130.7 -484.55,-68.6 0,0 156.52,-466.8 400.09,-458.6 243.56,8.2 327.72,153.5 478.33,155.8 150.61,2.4 257.65,-44.7 180.25,-80.5 -77.43,-35.7 -329.45,7 -456.85,-88.5 -127.39,-95.5 -229.3,-152.9 -7.28,-212.9 222.02,-59.9 627.33,-55.9 718.73,112.2 4,7.3 7.8,14.3 11.4,21 -5.7,-14 -11.4,-21 -11.4,-21 40,-26.8 95.1,-146 132.8,-237.2 5.3,-15.4 13.7,-36.9 26.4,-66.1 v 0 c 5.1,-13.1 9.2,-23.9 11.9,-31.4 67.1,-203.2 4.1,-543.1 4.1,-543.1 l 47.2,-15.8 c 127.7,338.6 -41.6,633.6 -41.6,633.6 -107.3,232.3 -89.5,428 -89.5,428 0,0 447.3,215.6 265.7,556.6 0,0 -149,211.7 -318.8,274.2" /><path
         id="path28"
         style="fill:#cde0fb;fill-opacity:1;fill-rule:nonzero;stroke:none"
         d="m 6890.67,4180.3 c -40.05,611.4 964.08,759.9 964.08,759.9 0,0 976.48,-759.7 1170.98,-719.1 194.5,40.5 -708.03,812.5 -708.03,812.5 349.41,158.7 1422.05,31.1 1422.05,31.1 0,0 332.85,-1162.4 511.45,-1075.3 178.5,87.2 -347.3,1014.3 -347.3,1014.3 385.7,14.8 851.8,-281.5 851.8,-281.5 635.5,-524.7 -71.1,-1313.7 -71.1,-1313.7 0,0 124,-400.4 524.5,-771.2 v 0 c 0,0 84,-65 189,-188.5 l -95.3,-32.6 c -16.6,22.9 -33.6,44.6 -51.2,65.1 -0.1,0.2 -0.2,0.3 -0.4,0.4 -0.2,0.3 -0.5,0.6 -0.7,0.9 -11.6,12.5 -28.2,30.2 -48.6,51.7 0,0.1 -0.1,0.1 -0.1,0.1 0,0.1 -0.1,0.1 -0.1,0.1 -48.7,47.1 -82.8,82.5 -105.6,108.6 -0.1,0.1 -0.2,0.2 -0.2,0.3 -148.6,149.1 -354.2,339.3 -454.8,359.5 0,0 5.5,18.4 5.4,50.7 -1.7,-16.2 -3.5,-33.1 -5.4,-50.7 -43.5,-405.7 -839.53,-743.4 -1326.11,-805.8 -486.58,-62.4 -332.31,133.7 -158.76,425.7 173.54,291.9 705.26,412.7 828.87,546.2 123.6,133.5 -125.83,139.2 -420.94,12.1 -295.12,-127.1 -342.89,-482.1 -816.54,-696.3 -473.65,-214.3 -1162.03,578.9 -1162.03,578.9 373.99,10.8 916.32,404.9 899.72,529.5 -16.6,124.5 -910.25,-194.5 -1062.12,-207.4 -151.86,-12.9 -492.47,183 -532.52,794.5" /><g
         transform="scale(1.57646)"
         id="g30"><path
           id="path32"
           style="fill:#6bb7bf;fill-opacity:1;fill-rule:nonzero;stroke:none"
           d="m 16300,9608.22 c 0,0 -67.9,51.27 -85.4,127.87 -13,56.85 19.6,128.19 22.2,131.42 l -90.9,18.13 c 0,0 -27,-120.73 18.7,-201 13.9,-24.6 54.5,-58.46 80.6,-71.13 28.7,-13.95 54.8,-5.29 54.8,-5.29" /></g><g
         transform="scale(1.59975)"
         id="g34"><path
           id="path36"
           style="fill:#86d1cd;fill-opacity:1;fill-rule:nonzero;stroke:none"
           d="m 16218.4,9522.86 81.6,-93.33 c 0,0 -230.6,-61.22 -362.4,101.88 0,0 194.1,-65.63 280.8,-8.55" /></g><g
         transform="scale(1.20963)"
         id="g38"><path
           id="path40"
           style="fill:#f99746;fill-opacity:1;fill-rule:nonzero;stroke:none"
           d="m 15889.5,14143.3 c 0,0 110,182.7 304.1,70.9 l 106.4,115.7 c 0,0 -111.1,73.6 -346.1,-86.4 -153.7,-104.7 -64.4,-100.2 -64.4,-100.2" /></g><g
         transform="scale(1.19267)"
         id="g42"><path
           id="path44"
           style="fill:#f99746;fill-opacity:1;fill-rule:nonzero;stroke:none"
           d="m 16005.1,14162.7 c 0,0 -37.5,202 294.9,350.9 0,0 -119.2,-67.6 -144.1,-272.9 l -150.8,-78" /></g><path
         id="path46"
         style="fill:#5685d8;fill-opacity:1;fill-rule:nonzero;stroke:none"
         d="m 11008.3,9937.7 c 0,0 -218,85.9 -132.4,316.6 l -144.8,94.1 c 0,0 -59.4,-133.8 156.9,-359.1 141.5,-147.5 120.3,-51.6 120.3,-51.6" /><path
         id="path48"
         style="fill:#739af0;fill-opacity:1;fill-rule:nonzero;stroke:none"
         d="m 11222.2,9852.6 c 0,0 -209,-76.4 -428,251.9 0,0 93.8,-115.2 317.5,-104.8 l 110.5,-147.1" /><path
         id="path50"
         style="fill:#f1a34f;fill-opacity:1;fill-rule:nonzero;stroke:none"
         d="m 11636.4,12960.4 c 0,0 120.3,76 133,167.8 0,0 117.2,-6.3 142.5,-44.3 0,0 -53.8,-152 -117.2,-180.5 0,0 -142.4,-9.5 -158.3,57" /><path
         id="path52"
         style="fill:#f1a34f;fill-opacity:1;fill-rule:nonzero;stroke:none"
         d="m 3739.36,7468.3 c 0,0 -128.35,81 -141.86,179 0,0 -124.98,-6.8 -152,-47.3 0,0 57.42,-162.1 124.98,-192.5 0,0 151.99,-10.2 168.88,60.8" /><g
         transform="scale(1.11172)"
         id="g54"><path
           id="path56"
           style="fill:#86d1cd;fill-opacity:1;fill-rule:nonzero;stroke:none"
           d="m 16300,13155.1 c 0,0 -161.3,101.8 -178.3,224.9 0,0 -156.9,-8.5 -190.9,-59.4 0,0 72.2,-203.7 157,-241.9 0,0 191,-12.7 212.2,76.4" /></g><g
         transform="scale(1.85837)"
         id="g58"><path
           id="path60"
           style="fill:#cde0fb;fill-opacity:1;fill-rule:nonzero;stroke:none"
           d="m 15673.9,8152.97 599.6,-1877.58 c 26.5,-82.84 -19.7,-172.31 -102.5,-198.77 l -3293.7,-1052 c -82.8,-26.47 -172.3,19.7 -198.8,102.51 l -599.7,1877.59 c -26.5,82.84 19.7,172.31 102.5,198.77 l 3293.8,1052.01 c 82.9,26.46 172.3,-19.69 198.8,-102.53" /></g><g
         transform="scale(1.57761)"
         id="g62"><path
           id="path64"
           style="fill:#afcdfb;fill-opacity:1;fill-rule:nonzero;stroke:none"
           d="m 16231.9,6792.46 -1034.1,-330.27 c -43.7,-13.98 -90.9,10.38 -104.9,54.13 l -3.2,9.94 c -14,43.75 10.4,90.98 54.1,104.95 l 1034.1,330.29 c 43.8,13.97 91,-10.39 105,-54.15 l 3.2,-9.93 c 13.9,-43.75 -10.4,-90.99 -54.2,-104.96" /></g><g
         transform="scale(1.7095)"
         id="g66"><path
           id="path68"
           style="fill:#afcdfb;fill-opacity:1;fill-rule:nonzero;stroke:none"
           d="m 16237.2,6670.08 -954.3,-304.8 c -40.4,-12.9 -84,9.59 -96.9,49.96 l -2.9,9.18 c -12.9,40.37 9.6,83.96 49.9,96.85 l 954.3,304.8 c 40.4,12.9 84,-9.59 96.9,-49.97 l 2.9,-9.16 c 12.9,-40.38 -9.6,-83.96 -49.9,-96.86" /></g><g
         transform="scale(1.58528)"
         id="g70"><path
           id="path72"
           style="fill:#afcdfb;fill-opacity:1;fill-rule:nonzero;stroke:none"
           d="m 16237.4,7921.45 c -7.5,23.53 -16.4,42.44 -26.8,56.74 -16,21.38 -33.2,29.1 -51.9,23.14 -19.1,-6.1 -28.8,-22.32 -29.3,-48.63 -0.4,-17.79 3.2,-38.56 10.8,-62.32 20.4,-64.03 46.9,-90.82 79.6,-80.38 18.9,6.03 28.5,22.45 28.7,49.24 0.3,17.46 -3.4,38.2 -11.1,62.21 z m 47.3,14.9 c 12,-37.52 15.3,-70.35 9.9,-98.49 -6.8,-35.51 -27.4,-58.75 -61.8,-69.73 -34.4,-10.98 -64.6,-3.97 -90.8,21.03 -20.6,19.8 -37,48.44 -49,85.96 -12,37.51 -15.4,70.18 -10.1,98 6.8,35.51 27.5,58.79 62.1,69.85 34.6,11.05 65,4.08 91.1,-20.91 20.4,-19.64 36.6,-48.2 48.6,-85.71" /></g><g
         transform="scale(1.60582)"
         id="g74"><path
           id="path76"
           style="fill:#afcdfb;fill-opacity:1;fill-rule:nonzero;stroke:none"
           d="m 16238.3,7886.73 c -7.4,23.21 -16.3,41.89 -26.6,56.01 -15.7,21.11 -32.8,28.72 -51.1,22.84 -18.9,-6.02 -28.6,-22.03 -28.9,-48.01 -0.5,-17.56 3,-38.06 10.6,-61.53 20.1,-63.2 46.4,-89.65 78.6,-79.34 18.6,5.95 28.1,22.15 28.3,48.61 0.3,17.24 -3.3,37.72 -10.9,61.42 z m 46.6,14.7 c 11.9,-37.04 15.1,-69.44 9.7,-97.23 -6.6,-35.05 -27,-58 -60.9,-68.83 -33.9,-10.84 -63.8,-3.92 -89.6,20.76 -20.5,19.53 -36.6,47.82 -48.4,84.86 -11.9,37.03 -15.2,69.28 -10,96.74 6.7,35.06 27.2,58.04 61.4,68.95 34.1,10.92 64.1,4.04 89.9,-20.63 20.1,-19.38 36.1,-47.59 47.9,-84.62" /></g><g
         transform="scale(1.63696)"
         id="g78"><path
           id="path80"
           style="fill:#afcdfb;fill-opacity:1;fill-rule:nonzero;stroke:none"
           d="m 16239.5,7835.74 c -7.3,22.78 -16,41.09 -26.1,54.95 -15.4,20.7 -32.1,28.17 -50.2,22.4 -18.5,-5.91 -28,-21.61 -28.3,-47.09 -0.5,-17.23 3,-37.35 10.4,-60.36 19.8,-62 45.5,-87.95 77.1,-77.84 18.3,5.84 27.6,21.74 27.8,47.69 0.3,16.91 -3.3,36.99 -10.7,60.25 z m 45.7,14.42 c 11.6,-36.34 14.8,-68.12 9.6,-95.37 -6.6,-34.4 -26.5,-56.9 -59.8,-67.54 -33.3,-10.63 -62.6,-3.84 -87.9,20.37 -20,19.16 -35.9,46.91 -47.5,83.24 -11.6,36.34 -14.9,67.97 -9.8,94.91 6.6,34.39 26.6,56.94 60.2,67.65 33.5,10.7 62.9,3.95 88.2,-20.25 19.8,-19.02 35.5,-46.68 47,-83.01" /></g><g
         transform="scale(1.65752)"
         id="g82"><path
           id="path84"
           style="fill:#afcdfb;fill-opacity:1;fill-rule:nonzero;stroke:none"
           d="m 16240.2,7803.13 c -7.2,22.49 -15.7,40.58 -25.7,54.26 -15.3,20.45 -31.8,27.82 -49.6,22.13 -18.3,-5.84 -27.6,-21.35 -28,-46.51 -0.4,-17.02 3,-36.88 10.2,-59.61 19.6,-61.23 45,-86.85 76.3,-76.87 18,5.77 27.2,21.47 27.4,47.1 0.3,16.7 -3.2,36.53 -10.6,59.5 z m 45.2,14.24 c 11.5,-35.89 14.6,-67.28 9.4,-94.19 -6.5,-33.96 -26.2,-56.2 -59.1,-66.69 -32.8,-10.51 -61.7,-3.8 -86.7,20.11 -19.9,18.92 -35.5,46.33 -46.9,82.21 -11.5,35.88 -14.7,67.12 -9.7,93.73 6.5,33.96 26.3,56.23 59.4,66.81 33.1,10.57 62.2,3.9 87.1,-20.01 19.5,-18.77 35,-46.09 46.5,-81.97" /></g><g
         transform="scale(1.67807)"
         id="g86"><path
           id="path88"
           style="fill:#afcdfb;fill-opacity:1;fill-rule:nonzero;stroke:none"
           d="m 16240.9,7771.31 c -7,22.22 -15.6,40.09 -25.4,53.6 -15,20.2 -31.3,27.49 -48.9,21.87 -18.1,-5.78 -27.3,-21.09 -27.7,-45.95 -0.5,-16.8 2.9,-36.43 10.1,-58.88 19.3,-60.48 44.4,-85.79 75.3,-75.93 17.8,5.7 26.8,21.2 27.1,46.53 0.3,16.48 -3.2,36.08 -10.5,58.76 z m 44.7,14.07 c 11.3,-35.44 14.4,-66.45 9.3,-93.04 -6.5,-33.55 -25.9,-55.5 -58.4,-65.88 -32.4,-10.37 -61,-3.74 -85.7,19.87 -19.6,18.7 -35,45.76 -46.3,81.21 -11.3,35.44 -14.6,66.3 -9.6,92.59 6.4,33.54 26,55.53 58.7,65.98 32.7,10.44 61.4,3.85 86.1,-19.76 19.2,-18.54 34.6,-45.53 45.9,-80.97" /></g><g
         transform="scale(1.69861)"
         id="g90"><path
           id="path92"
           style="fill:#afcdfb;fill-opacity:1;fill-rule:nonzero;stroke:none"
           d="m 16241.7,7740.29 c -7,21.96 -15.4,39.61 -25.2,52.95 -14.8,19.96 -30.9,27.16 -48.3,21.61 -17.9,-5.71 -27,-20.84 -27.3,-45.4 -0.4,-16.59 2.9,-35.98 10,-58.15 19.1,-59.76 43.8,-84.76 74.3,-75.02 17.6,5.62 26.6,20.95 26.8,45.96 0.3,16.29 -3.2,35.65 -10.3,58.05 z m 44.1,13.9 c 11.1,-35.01 14.2,-65.64 9.2,-91.91 -6.4,-33.14 -25.6,-54.84 -57.6,-65.08 -32.1,-10.24 -60.4,-3.7 -84.8,19.63 -19.3,18.47 -34.6,45.21 -45.8,80.22 -11.1,35.01 -14.3,65.5 -9.4,91.47 6.4,33.13 25.7,54.87 58,65.18 32.3,10.32 60.6,3.81 85,-19.51 19.1,-18.32 34.2,-44.98 45.4,-80" /></g><g
         transform="scale(1.72976)"
         id="g94"><path
           id="path96"
           style="fill:#afcdfb;fill-opacity:1;fill-rule:nonzero;stroke:none"
           d="m 16242.7,7694.65 c -6.9,21.56 -15.1,38.89 -24.7,52 -14.5,19.6 -30.4,26.66 -47.5,21.2 -17.5,-5.59 -26.4,-20.45 -26.8,-44.56 -0.4,-16.3 2.9,-35.34 9.8,-57.12 18.7,-58.68 43.1,-83.23 73,-73.66 17.4,5.52 26.1,20.57 26.3,45.13 0.3,16 -3.1,35 -10.1,57.01 z m 43.3,13.65 c 11,-34.38 14,-64.47 9,-90.26 -6.2,-32.55 -25.1,-53.84 -56.6,-63.9 -31.5,-10.07 -59.2,-3.64 -83.1,19.26 -19,18.15 -34,44.4 -45,78.79 -11,34.38 -14.1,64.31 -9.2,89.81 6.2,32.55 25.2,53.88 56.9,64.01 31.7,10.13 59.5,3.75 83.5,-19.16 18.7,-17.99 33.5,-44.17 44.5,-78.55" /></g><g
         transform="scale(1.75031)"
         id="g98"><path
           id="path100"
           style="fill:#afcdfb;fill-opacity:1;fill-rule:nonzero;stroke:none"
           d="m 16243.4,7665.45 c -6.8,21.31 -14.9,38.43 -24.4,51.39 -14.4,19.36 -30,26.35 -46.9,20.96 -17.3,-5.53 -26.2,-20.22 -26.5,-44.05 -0.4,-16.11 2.8,-34.92 9.7,-56.45 18.5,-57.98 42.5,-82.25 72.1,-72.79 17.1,5.46 25.8,20.33 26,44.6 0.3,15.81 -3,34.6 -10,56.34 z m 42.8,13.49 c 10.8,-33.98 13.8,-63.71 8.9,-89.2 -6.1,-32.16 -24.8,-53.21 -55.9,-63.16 -31.1,-9.94 -58.5,-3.59 -82.2,19.05 -18.7,17.92 -33.6,43.87 -44.5,77.86 -10.8,33.97 -13.8,63.56 -9.1,88.76 6.2,32.16 24.9,53.25 56.3,63.26 31.3,10.01 58.8,3.7 82.5,-18.94 18.5,-17.78 33.1,-43.65 44,-77.63" /></g><g
         transform="scale(1.77086)"
         id="g102"><path
           id="path104"
           style="fill:#afcdfb;fill-opacity:1;fill-rule:nonzero;stroke:none"
           d="m 16244,7636.9 c -6.7,21.06 -14.8,37.99 -24.1,50.79 -14.2,19.15 -29.7,26.05 -46.3,20.72 -17.1,-5.46 -25.9,-19.98 -26.2,-43.54 -0.5,-15.92 2.7,-34.51 9.5,-55.79 18.3,-57.31 42.1,-81.29 71.4,-71.95 16.9,5.4 25.4,20.09 25.6,44.08 0.3,15.63 -3,34.2 -9.9,55.69 z m 42.3,13.34 c 10.8,-33.59 13.7,-62.98 8.8,-88.17 -6.1,-31.79 -24.5,-52.59 -55.2,-62.42 -30.8,-9.83 -57.9,-3.55 -81.2,18.83 -18.6,17.71 -33.2,43.36 -44,76.94 -10.7,33.59 -13.7,62.83 -9,87.74 6.1,31.79 24.6,52.63 55.6,62.52 31,9.9 58.2,3.66 81.6,-18.72 18.2,-17.57 32.7,-43.14 43.4,-76.72" /></g><g
         transform="scale(1.79141)"
         id="g106"><path
           id="path108"
           style="fill:#afcdfb;fill-opacity:1;fill-rule:nonzero;stroke:none"
           d="m 16244.6,7609.01 c -6.6,20.81 -14.5,37.55 -23.8,50.21 -14,18.92 -29.3,25.74 -45.8,20.48 -17,-5.41 -25.6,-19.76 -25.9,-43.04 -0.4,-15.74 2.7,-34.12 9.4,-55.15 18.1,-56.66 41.6,-80.36 70.6,-71.13 16.7,5.34 25.1,19.86 25.4,43.58 0.2,15.45 -3.1,33.8 -9.9,55.05 z m 41.9,13.18 c 10.6,-33.2 13.5,-62.25 8.7,-87.15 -6,-31.42 -24.2,-51.99 -54.7,-61.71 -30.4,-9.71 -57.2,-3.51 -80.3,18.61 -18.3,17.51 -32.7,42.86 -43.4,76.07 -10.6,33.19 -13.6,62.1 -8.9,86.72 6,31.43 24.3,52.03 54.9,61.81 30.7,9.79 57.5,3.62 80.7,-18.5 18,-17.37 32.4,-42.65 43,-75.85" /></g><g
         transform="scale(1.52156)"
         id="g110"><path
           id="path112"
           style="fill:#afcdfb;fill-opacity:1;fill-rule:nonzero;stroke:none"
           d="m 16229.4,8843.44 -1049.2,-335.12 c -45.4,-14.49 -94.3,10.76 -108.9,56.13 v 0 c -14.4,45.36 10.8,94.33 56.2,108.82 l 1049.2,335.13 c 45.4,14.49 94.4,-10.78 108.8,-56.14 v 0 c 14.5,-45.36 -10.7,-94.33 -56.1,-108.82" /></g><g
         transform="scale(1.75377)"
         id="g114"><path
           id="path116"
           style="fill:#afcdfb;fill-opacity:1;fill-rule:nonzero;stroke:none"
           d="m 16291.7,8210.89 c -8.3,25.98 -25,46.99 -46.1,61.03 -6.2,4.08 -14.5,1.86 -17.8,-4.71 l -2.9,-5.71 c -2.8,-5.48 -1.1,-12.2 4,-15.62 15.3,-10.26 27.3,-25.53 33.4,-44.38 6,-18.87 5,-38.29 -1.5,-55.51 -2.1,-5.74 0.4,-12.19 5.8,-15.04 l 5.6,-2.99 c 6.6,-3.44 14.6,-0.4 17.3,6.48 9.1,23.69 10.5,50.47 2.2,76.45" /></g><g
         transform="scale(1.76069)"
         id="g118"><path
           id="path120"
           style="fill:#afcdfb;fill-opacity:1;fill-rule:nonzero;stroke:none"
           d="m 16286.4,8197.39 c -13.6,42.55 -41.9,76.37 -77.5,97.65 -6,3.61 -13.9,1.18 -17,-5.09 l -1.7,-3.22 c -2.9,-5.76 -0.8,-12.71 4.8,-16.04 29.7,-17.95 53.3,-46.28 64.6,-81.85 11.4,-35.57 8.6,-72.33 -5.2,-104.19 -2.6,-5.92 -0.3,-12.81 5.4,-15.82 l 3.2,-1.68 c 6.2,-3.27 14.1,-0.7 16.8,5.73 16.7,37.99 20.2,81.94 6.6,124.51" /></g><g
         transform="scale(1.76674)"
         id="g122"><path
           id="path124"
           style="fill:#afcdfb;fill-opacity:1;fill-rule:nonzero;stroke:none"
           d="m 16281.9,8185.67 c -18.1,56.73 -56.3,101.58 -104.3,129.2 -6.1,3.48 -13.8,1.09 -17,-5.13 v 0 c -2.8,-5.77 -0.7,-12.79 4.9,-16.01 42.9,-24.67 77,-64.76 93.2,-115.46 16.2,-50.69 11.6,-103.16 -9,-148.12 -2.7,-5.88 -0.4,-12.82 5.3,-15.84 v 0 c 6.2,-3.24 13.9,-0.71 16.8,5.62 23,50.33 28.2,109.01 10.1,165.74" /></g><g
         transform="scale(1.7733)"
         id="g126"><path
           id="path128"
           style="fill:#afcdfb;fill-opacity:1;fill-rule:nonzero;stroke:none"
           d="m 16277,8173.08 c -23,71.99 -71.9,128.65 -133.1,162.95 -6,3.39 -13.7,1.06 -16.8,-5.13 l -2.8,-5.53 c -3,-5.78 -0.8,-12.83 4.9,-16 54.6,-30.73 98.2,-81.31 118.7,-145.58 20.6,-64.28 14.3,-130.76 -12.4,-187.48 -2.7,-5.86 -0.4,-12.84 5.3,-15.86 l 5.5,-2.89 c 6.2,-3.23 13.8,-0.69 16.7,5.59 30,63.44 37,137.95 14,209.93" /></g><g
         transform="scale(1.51809)"
         id="g130"><path
           id="path132"
           style="fill:#ffa412;fill-opacity:1;fill-rule:nonzero;stroke:none"
           d="M 16300,1372.58 H 14004.4 V 7984.72 H 16300 V 1372.58" /></g><g
         transform="scale(1.30429)"
         id="g134"><path
           id="path136"
           style="fill:#ffb93e;fill-opacity:1;fill-rule:nonzero;stroke:none"
           d="M 16300,1597.57 H 9241.24 V 9293.56 H 16300 V 1597.57" /></g><g
         transform="scale(1.30429)"
         id="g138"><path
           id="path140"
           style="fill:#ffa412;fill-opacity:1;fill-rule:nonzero;stroke:none"
           d="m 9241.24,4990.13 v 538.68 H 16300 V 4990.13 H 9241.24" /></g><g
         transform="scale(1.51809)"
         id="g142"><path
           id="path144"
           style="fill:#fa9712;fill-opacity:1;fill-rule:nonzero;stroke:none"
           d="m 14004.4,4287.36 v 462.81 H 16300 v -462.81 h -2295.6" /></g><g
         transform="scale(1.34325)"
         id="g146"><path
           id="path148"
           style="fill:#f99746;fill-opacity:1;fill-rule:nonzero;stroke:none"
           d="m 13698.9,8944.02 c 0,0 1548.5,1006.21 2601.1,682.89 l -217.2,-202.81 97.9,-340.81 c 0,0 -1170.5,381.18 -2513.8,-196.6 l 32,57.33" /></g><g
         transform="scale(1.12176)"
         id="g150"><path
           id="path152"
           style="fill:#f99746;fill-opacity:1;fill-rule:nonzero;stroke:none"
           d="m 16300,10982.8 c 0,0 -327.2,39.6 -814.8,106.6 -1294.5,178.1 -3719.1,550.6 -4154.4,895.3 -683.8,541.6 936.6,2841.5 1638.1,3160.7 701.4,319 3331.1,-4162.6 3331.1,-4162.6" /></g><g
         transform="scale(1.48285)"
         id="g154"><path
           id="path156"
           style="fill:#f99746;fill-opacity:1;fill-rule:nonzero;stroke:none"
           d="m 16211.6,10474.9 c 88.4,-431 -3917.3,-2293.1 -3917.3,-2293.1 0,0 72.9,197.02 191.4,505.63 0,0 0.2,0.26 0.4,0.52 433.1,1126.96 1476.4,3742.25 1819.2,3706.05 34.4,-3.6 74.7,-15.9 119.7,-35.6 526.6,-231.7 1705.1,-1486.5 1786.6,-1883.5" /></g><g
         transform="scale(1.32149)"
         id="g158"><path
           id="path160"
           style="fill:#ed7d2b;fill-opacity:1;fill-rule:nonzero;stroke:none"
           d="m 16148.5,13437.3 c -274.5,-476.8 -2109.1,-3639.21 -2137.8,-3688.5 486,1264.6 1656.7,4199.2 2041.3,4158.5 0,0 76.2,2.2 134.4,-39.9 70.1,-51.1 113.6,-166.8 -37.9,-430.1" /></g><g
         transform="scale(1.06575)"
         id="g162"><path
           id="path164"
           style="fill:#ed7d2b;fill-opacity:1;fill-rule:nonzero;stroke:none"
           d="m 16300,11672.3 h -0.9 c -1362.6,187.4 -3914.7,579.5 -4372.7,942.3 -206.8,582.6 329.8,630.1 720.4,671.1 390.2,41 3653.2,-1613.4 3653.2,-1613.4" /></g><g
         transform="scale(1.18027)"
         id="g166"><path
           id="path168"
           style="fill:#ed7d2b;fill-opacity:1;fill-rule:nonzero;stroke:none"
           d="m 14553.4,10270.8 c 0,0 282.1,641.8 837.3,677.3 580,37.2 909.3,-677.3 909.3,-677.3 h -1746.6" /></g><g
         transform="scale(1.31336)"
         id="g170"><path
           id="path172"
           style="fill:#ffc261;fill-opacity:1;fill-rule:nonzero;stroke:none"
           d="M 16300,8178.24 H 8964.97 v 1051.2 H 16300 v -1051.2" /></g><g
         transform="scale(1.53612)"
         id="g174"><path
           id="path176"
           style="fill:#fa9712;fill-opacity:1;fill-rule:nonzero;stroke:none"
           d="m 16300,6992.27 h -2363.8 v 898.76 H 16300 v -898.76" /></g><g
         transform="scale(1.0745)"
         id="g178"><path
           id="path180"
           style="fill:#f99746;fill-opacity:1;fill-rule:nonzero;stroke:none"
           d="m 16300,11388.7 c 0,0 -1756,556.3 -2940.9,188.5 -1365.9,-423.9 -1284.9,-2109.18 -1284.9,-2109.18 l 321.2,132.05 433.7,-203.43 c 0,0 73.1,1784.56 1186.7,2034.36 962.8,216.1 2284.2,-42.3 2284.2,-42.3" /></g><g
         transform="scale(1.01512)"
         id="g182"><path
           id="path184"
           style="fill:#ffa412;fill-opacity:1;fill-rule:nonzero;stroke:none"
           d="m 16300,2053.65 h -692.1 V 11941 H 16300 V 2053.65" /></g><path
         id="path186"
         style="fill:#ed7d2b;fill-opacity:1;fill-rule:nonzero;stroke:none"
         d="m 10719.2,13277 -645,-216.1 -622.66,1857.8 645.06,216.2 622.6,-1857.9" /><path
         id="path188"
         style="fill:#f99746;fill-opacity:1;fill-rule:nonzero;stroke:none"
         d="m 10074.2,13060.9 -1704,-571.2 -622.7,1857.9 1704.04,571.1 622.66,-1857.8" /><path
         id="path190"
         style="fill:#ffb93e;fill-opacity:1;fill-rule:nonzero;stroke:none"
         d="m 8095.7,13308.7 -43.59,130.1 1704.04,571.1 43.58,-130.1 -1704.03,-571.1" /><path
         id="path192"
         style="fill:#f69b34;fill-opacity:1;fill-rule:nonzero;stroke:none"
         d="m 9799.73,13879.8 -43.58,130.1 645.05,216.2 43.5,-130.1 -644.97,-216.2" /><path
         id="path194"
         style="fill:#ffb93e;fill-opacity:1;fill-rule:nonzero;stroke:none"
         d="m 8980.98,14792.8 c 0,0 442.95,412.2 837.3,444.1 l -56.4,-73 65.43,-73.6 c 0,0 -440.52,-30.2 -852.11,-315 l 5.78,17.5" /><path
         id="path196"
         style="fill:#ffb93e;fill-opacity:1;fill-rule:nonzero;stroke:none"
         d="m 8888.54,14770.9 c 0,0 -70.67,-14.6 -176.59,-34.6 -281.15,-53.1 -810.5,-144.5 -924.85,-103.2 -179.66,64.9 -3.26,655.2 120.16,770.2 123.43,115.1 981.28,-632.4 981.28,-632.4" /><path
         id="path198"
         style="fill:#ffb93e;fill-opacity:1;fill-rule:nonzero;stroke:none"
         d="m 9754.35,15722.5 c 63.92,-110.2 -864.17,-989.7 -864.17,-989.7 0,0 1.89,60.8 6.03,156.4 0,0 0.02,0.1 0.04,0.2 15.2,349.1 60.96,1162.8 158.38,1184.4 9.78,2.2 21.97,2.6 36.13,1.3 165.83,-15.2 604.72,-251.1 663.59,-352.6" /><path
         id="path200"
         style="fill:#f69b34;fill-opacity:1;fill-rule:nonzero;stroke:none"
         d="m 9116.75,15966.8 c -28.05,-139.1 -217.51,-1063 -220.5,-1077.4 15.2,349.1 60.96,1162.8 158.38,1184.4 0,0 18.46,6.8 36.13,1.3 21.34,-6.8 41.47,-31.5 25.99,-108.3" /><path
         id="path202"
         style="fill:#f69b34;fill-opacity:1;fill-rule:nonzero;stroke:none"
         d="m 8712.13,14736.4 -0.18,-0.1 c -281.15,-53.1 -810.5,-144.5 -924.85,-103.2 -79.31,101.3 23.41,146.1 97.74,180 74.28,33.9 827.29,-76.7 827.29,-76.7" /><path
         id="path204"
         style="fill:#f69b34;fill-opacity:1;fill-rule:nonzero;stroke:none"
         d="m 8695.77,14665.6 c 0,0 14.64,160.8 133.33,209.2 123.96,50.6 248.23,-81.3 248.23,-81.3 l -381.56,-127.9" /><path
         id="path206"
         style="fill:#ffa15a;fill-opacity:1;fill-rule:nonzero;stroke:none"
         d="m 9564.52,14672.4 -1783.03,-597.7 -85.65,255.6 1783.04,597.6 85.64,-255.5" /><path
         id="path208"
         style="fill:#f78639;fill-opacity:1;fill-rule:nonzero;stroke:none"
         d="m 10236.6,14897.6 -672.08,-225.2 -85.64,255.5 672.02,225.2 85.7,-255.5" /><path
         id="path210"
         style="fill:#ffbe55;fill-opacity:1;fill-rule:nonzero;stroke:none"
         d="m 8751.1,14707.8 c 0,0 -386.31,-6.5 -597.45,-158.6 -243.37,-175.3 -114.94,-505.1 -114.94,-505.1 l 55.08,47.7 99.8,-11.6 c 0,0 -104.4,359.8 100.41,483.7 177.09,107.2 457.1,143.9 457.1,143.9" /><path
         id="path212"
         style="fill:#ffb93e;fill-opacity:1;fill-rule:nonzero;stroke:none"
         d="m 9207.17,12752.4 -130.03,-43.6 -628.06,1873.9 130.03,43.6 628.06,-1873.9" /><g
         transform="scale(1.34896)"
         id="g214"><path
           id="path216"
           style="fill:#233862;fill-opacity:1;fill-rule:nonzero;stroke:none"
           d="m 15814.2,8196.41 c 0,0 -189.1,-111.38 -73,-327.2 0,0 -165.6,30.3 -201.3,79.72 0,0 4.1,-20.58 10.3,-30.96 0,0 -152.2,34.49 -202,97.99 -49.8,63.51 194.4,824.28 590,627.25 0,0 361.8,-67.11 220.1,-468.75 -141.7,-401.63 -7.8,-437.1 -7.8,-437.1 0,0 -42.1,-8.5 -60.1,-3.74 0,0 -23.6,16.98 -25,32.89 0,0 -0.8,-24.2 4.1,-33.25 0,0 -148.2,24.58 -206,98.25 -57.7,73.66 -92.3,285.69 -49.3,364.9" /></g><g
         transform="scale(1.28617)"
         id="g218"><path
           id="path220"
           style="fill:#ffb27d;fill-opacity:1;fill-rule:nonzero;stroke:none"
           d="m 16300,7918.44 c -0.2,-0.09 -0.4,-0.18 -0.7,-0.27 -1.2,0.18 -0.9,0.27 0.7,0.27" /></g><g
         transform="scale(1.32602)"
         id="g222"><path
           id="path224"
           style="fill:#ffb27d;fill-opacity:1;fill-rule:nonzero;stroke:none"
           d="m 16277.7,7815.05 c 5.6,-50.66 12.3,-96.09 15.4,-117.74 6.7,-48.52 -453.7,-16.94 -483,-16.86 20.5,8.9 83,206.99 102.7,282.54 23.9,91.64 42.8,190.65 42.8,190.65 l 325,-20.54 19.4,-1.2 c -12,-44.33 -20.5,-86.17 -26.5,-125.01 -0.7,-5.22 -1.5,-10.52 -2.2,-15.67 -5.9,-43.12 -0.6,-113.62 6.4,-176.17" /></g><g
         transform="scale(1.35185)"
         id="g226"><path
           id="path228"
           style="fill:#233862;fill-opacity:1;fill-rule:nonzero;stroke:none"
           d="m 15606.7,8029.97 c 0,0 -51.7,163.93 -41.2,289.64 7.4,89.76 135.2,395.92 442.4,265.64 0,0 90.3,-33.7 161.8,-115.64 57,-65.17 130.3,-192.74 -55,-440.38 l -53.9,-85.97 -454.1,86.71" /></g><g
         transform="scale(1.3242)"
         id="g230"><path
           id="path232"
           style="fill:#ed975d;fill-opacity:1;fill-rule:nonzero;stroke:none"
           d="m 16300,7825.77 c -227.8,66.7 -324.3,329.72 -324.3,329.72 96.2,-2.82 221.8,-69.67 320.1,-137.62 -0.7,-5.23 -1.5,-10.54 -2.1,-15.69 -6,-43.18 -0.7,-113.78 6.3,-176.41" /></g><g
         transform="scale(1.34756)"
         id="g234"><path
           id="path236"
           style="fill:#ffb27d;fill-opacity:1;fill-rule:nonzero;stroke:none"
           d="m 16033.2,7780.9 c 0,0 -404.3,99.91 -338.1,350.7 66.1,250.78 58.4,432.57 319.3,379.39 260.9,-53.2 285.6,-162.05 283.9,-251.13 -1.7,-89.07 -158.2,-498.49 -265.1,-478.96" /></g><g
         transform="scale(1.33925)"
         id="g238"><path
           id="path240"
           style="fill:#233862;fill-opacity:1;fill-rule:nonzero;stroke:none"
           d="m 16300,8521.2 c 0,0 -189.3,-266.6 -371,-265.31 -181.8,1.29 -243.5,66.42 -243.5,66.42 0,0 158,69.14 232.9,242.98 0,0 335.2,118.92 381.6,-44.09" /></g><g
         transform="scale(1.35472)"
         id="g242"><path
           id="path244"
           style="fill:#233862;fill-opacity:1;fill-rule:nonzero;stroke:none"
           d="m 16080.3,8407.28 c 0,0 64.5,-86.99 67.7,-155.78 3.1,-68.79 -22.5,-201.9 16.8,-207.54 0,0 135.2,177 72.2,314.06 -66.8,145.35 -156.7,49.26 -156.7,49.26" /></g><g
         transform="scale(1.33815)"
         id="g246"><path
           id="path248"
           style="fill:#233862;fill-opacity:1;fill-rule:nonzero;stroke:none"
           d="m 16292.2,8497.31 c 0,0 -161.2,-289.25 -402.5,-331.7 0,0 265.4,133.68 337.9,333.6 72.4,199.93 64.6,-1.9 64.6,-1.9" /></g><g
         transform="scale(1.33317)"
         id="g250"><path
           id="path252"
           style="fill:#ffffff;fill-opacity:1;fill-rule:nonzero;stroke:none"
           d="m 16142.6,8027.44 c 0,0 5.1,-38.59 29.7,-47.71 24.6,-9.13 90,-25.66 96.6,-21.57 6.6,4.09 31.1,34.19 31.1,34.19 0,0 -102.9,39.49 -157.4,35.09" /></g><g
         transform="scale(1.32323)"
         id="g254"><path
           id="path256"
           style="fill:#ffb27d;fill-opacity:1;fill-rule:nonzero;stroke:none"
           d="m 16110.2,4180.99 c -5.3,-21.92 -10.5,-43.53 -15.7,-64.92 -31,-129 -59.9,-248.55 -78,-348.69 -23.7,-130.21 -29.3,-227.09 1.8,-267.83 127.8,-167.62 0,-1497.93 0,-1497.93 l -145.6,-149.86 c 0,0 -252.9,1313.38 -321.6,1519.17 -31.2,93.56 -76.6,493.11 -116.7,901.05 -2.1,20.41 -4,40.81 -6.1,61.21 -6.8,71.34 -13.6,142.38 -20,211.76 -36,385.95 -62.9,716.43 -62.9,716.43 0,0 268.2,188.63 512,209.64 143.7,12.54 278.8,-33.18 345.4,-209.64 97.2,-256.72 -1.3,-700.03 -92.6,-1080.39" /></g><g
         transform="scale(1.32323)"
         id="g258"><path
           id="path260"
           style="fill:#ed975d;fill-opacity:1;fill-rule:nonzero;stroke:none"
           d="m 16110.2,4180.99 c -199.4,143.97 -479.9,400.16 -581.6,820.12 -19.5,208.81 145.1,407.26 328.8,469.91 143.7,12.54 278.8,-33.18 345.4,-209.64 97.2,-256.72 -1.3,-700.03 -92.6,-1080.39" /></g><g
         transform="scale(1.44637)"
         id="g262"><path
           id="path264"
           style="fill:#ffb27d;fill-opacity:1;fill-rule:nonzero;stroke:none"
           d="m 15403.7,6145.74 896.3,-231.55 v -104.6 c 0,0 -892,10.44 -949.5,109.79 -57.5,99.35 53.2,226.36 53.2,226.36" /></g><g
         transform="scale(1.44636)"
         id="g266"><path
           id="path268"
           style="fill:#ffb27d;fill-opacity:1;fill-rule:nonzero;stroke:none"
           d="m 16300,2696.07 -41.9,-172.91 c 0,0 -1212.4,626.19 -1369.2,746.49 -63.1,48.33 -146.3,310.71 -223.4,607.53 -114.9,442.49 -216,961.37 -216,961.37 0,0 169.9,653.71 624.9,253.61 272.3,-239.43 230,-700.73 200.2,-1059.56 -19.8,-240.74 -34.2,-435.37 56.1,-485.84 176.1,-98.25 692.9,-551.04 856.5,-862.58 l 112.8,11.89" /></g><g
         transform="scale(1.28734)"
         id="g270"><path
           id="path272"
           style="fill:#ffb27d;fill-opacity:1;fill-rule:nonzero;stroke:none"
           d="m 16002.7,6293.92 c -355.8,90.5 -746.9,642.41 -746.9,642.41 l 100.2,86.93 c 103.7,-122.27 535,-332.86 535,-332.86 -2.3,111.86 0.6,213.93 7.6,306.83 47.9,631.38 285.9,841.7 350.9,887.87 10.5,7.49 16.5,10.61 16.5,10.61 0,0 0.2,-4.59 0.6,-13.28 0.9,-18.75 2.6,-56.55 4.4,-108.42 13.2,-386.44 29,-1555.83 -268.3,-1480.09" /></g><g
         transform="scale(1.28756)"
         id="g274"><path
           id="path276"
           style="fill:#ffffff;fill-opacity:1;fill-rule:nonzero;stroke:none"
           d="m 16281.7,7050.4 c -18.5,-450.31 -85.8,-896.27 -281.9,-867.53 -240.4,35.02 -303,259.32 -315.7,426.07 -7.9,103.85 3.5,185.32 3.5,185.32 0,0 118.3,0.54 137.4,18.17 90.9,83.88 63.9,906.83 108.9,992.27 45,85.44 336.7,140.3 336.7,140.3 0,0 29.4,-449.5 11.1,-894.6" /></g><g
         transform="scale(1.28611)"
         id="g278"><path
           id="path280"
           style="fill:#dfebfd;fill-opacity:1;fill-rule:nonzero;stroke:none"
           d="m 16300,7058.34 c -18.5,-450.82 -85.9,-897.28 -282.2,-868.51 -240.6,35.06 -303.3,259.62 -316,426.55 59.1,2.96 163,17.42 204.4,80.4 59.1,90.27 243.7,671.02 243.7,671.02 0,0 72.6,-130.4 150.1,-309.46" /></g><g
         transform="scale(1.41101)"
         id="g282"><path
           id="path284"
           style="fill:#ffffff;fill-opacity:1;fill-rule:nonzero;stroke:none"
           d="m 16240.6,6299.76 c 59.4,-84.41 26.7,-248.12 -98,-379.87 -77.4,-81.86 -182.2,-130.26 -352.9,-105.1 -74.4,10.98 -282.3,128.35 -304.1,271.36 -3.9,25.94 -6.1,41.11 -6.1,41.11 0,0 -94.6,-94.76 -98.1,-112.62 -1.7,-8.07 -9.8,-79.65 -11.1,-89.44 -1.5,-11.83 7,-55.27 7,-55.27 0,0 -452.1,-197.74 -825.8,27.42 0,0 -106.6,913.18 -30,1065.13 38,75.48 251.3,222.48 325.6,287.42 16.7,14.61 33.6,58.65 29,87.01 -3.7,23.97 23.8,64.36 46.9,57.01 44.7,-14.31 171.1,-76.85 260.1,-52.99 44.3,11.77 100.4,62.98 143.3,51.26 52.6,-14.33 -2.9,-140.65 26.8,-142.29 41.1,-2.02 262.5,-46.31 281,-82.02 6.5,-12.44 70.1,-180.95 149.9,-403.91 0,0 0,-0.14 0,-0.57 149.7,-418.21 369.3,-339.76 456.5,-463.64" /></g><g
         transform="scale(1.33998)"
         id="g286"><path
           id="path288"
           style="fill:#dfebfd;fill-opacity:1;fill-rule:nonzero;stroke:none"
           d="m 16300,6452.03 c 0,0 -11.6,366.8 -41.3,362.32 -29.6,-4.48 -457.2,-416.05 -355.6,-580.68 101.6,-164.63 396.9,218.36 396.9,218.36" /></g><g
         transform="scale(1.36683)"
         id="g290"><path
           id="path292"
           style="fill:#2b478b;fill-opacity:1;fill-rule:nonzero;stroke:none"
           d="m 16300,4850.84 c 0,0 -161.6,-49.89 -399.6,-82.81 -294.7,-40.75 -706.7,-55.46 -1074.6,82.81 0,0 -30.3,547.55 56.8,832.88 87.2,285.48 128,422.07 128,422.07 0,0 349.3,-87.58 704,-19.68 49.8,9.44 99.8,22.09 148.8,38.41 0,0 218.8,-464.51 278.9,-663.58 60.3,-199.15 157.7,-610.1 157.7,-610.1" /></g><g
         transform="scale(1.36683)"
         id="g294"><path
           id="path296"
           style="fill:#233862;fill-opacity:1;fill-rule:nonzero;stroke:none"
           d="m 16300,4850.84 c 0,0 -161.6,-49.89 -399.6,-82.81 -436.5,247.5 -223.7,1288.96 -223.7,1288.96 13,10.46 25.6,20.19 37.9,29.12 49.8,9.44 99.8,22.09 148.8,38.41 0,0 218.8,-464.51 278.9,-663.58 60.3,-199.15 157.7,-610.1 157.7,-610.1" /></g><g
         transform="scale(1.33148)"
         id="g298"><path
           id="path300"
           style="fill:#b64c41;fill-opacity:1;fill-rule:nonzero;stroke:none"
           d="m 15789.9,6162.07 c -265.7,0 -375.2,91.4 -383.3,97.63 l -17.1,125.13 c 2.6,-1.96 358.9,-215.93 910.5,-10.97 l -11.7,-94.78 c -212.1,-78.78 -360.4,-117.01 -498.4,-117.01" /></g><g
         transform="scale(1.48231)"
         id="g302"><path
           id="path304"
           style="fill:#ffb27d;fill-opacity:1;fill-rule:nonzero;stroke:none"
           d="m 15904.8,5770.8 c 0,0 160.4,79.07 224.3,86.69 63.7,7.69 170.9,10.26 170.9,0 0,-10.19 -114.8,-81.49 -145.4,-86.69 -30.7,-5.12 -89.4,-48.5 -71.5,-53.63 17.9,-5.06 112.3,16.6 113.5,0 1.3,-16.6 -57.4,-26.78 -67.5,-39.53 -10.3,-12.75 -46,-28.07 -103.4,-20.38 -57.4,7.63 -120.9,11.47 -120.9,11.47 v 102.07" /></g><g
         transform="scale(1.2129)"
         id="g306"><path
           id="path308"
           style="fill:#ffb27d;fill-opacity:1;fill-rule:nonzero;stroke:none"
           d="m 16298.4,7454.64 -106.7,-93 c 0,0 -189.3,138.35 -198.4,195.07 v 5.69 c 0,58.95 120.2,181.38 220,185.92 10.2,0 19.3,-2.23 27.2,-6.76 53.2,-33.31 59.5,-171.82 59,-243.47 -0.2,-26.22 -1.1,-43.45 -1.1,-43.45" /></g><g
         transform="scale(1.44636)"
         id="g310"><path
           id="path312"
           style="fill:#2b478b;fill-opacity:1;fill-rule:nonzero;stroke:none"
           d="m 16300,2696.07 -41.9,-172.91 c 0,0 -1212.4,626.19 -1369.2,746.49 -63.1,48.33 -146.3,310.71 -223.4,607.53 103.5,-21.23 326.9,-32.57 609.1,155.42 -19.8,-240.74 -34.2,-435.37 56.1,-485.84 176.1,-98.25 692.9,-551.04 856.5,-862.58 l 112.8,11.89" /></g><g
         transform="scale(1.48306)"
         id="g314"><path
           id="path316"
           style="fill:#233862;fill-opacity:1;fill-rule:nonzero;stroke:none"
           d="m 16130.4,2563.89 c 0,0 -0.3,0.06 -1.1,0.27 -5.2,1.34 -29.6,9.37 -45.7,48 -10.6,25.49 -13.8,46.4 -23.5,71.61 l -40,68.92 c -41.7,54.95 -56.4,42.07 -56.4,42.07 0,0 -10.9,-13.96 -27,-32.43 -26.6,-30.48 -67.5,-72.96 -96.4,-83.88 -20.6,-7.69 -33.4,-20.5 -41.4,-32.3 -10,-14.9 -12.2,-28.39 -12.2,-28.39 0,0 85.7,-14.9 78.3,-57.18 -14.6,-81.79 -11.2,-96.62 -9.7,-99.32 l 0.5,-0.54 c 0,0 146.2,-76.53 193,-91.57 83.2,-26.63 126.7,-83.2 153.6,-109.03 11,-10.52 26.1,-15.3 41,-12.94 21.9,3.5 50.4,10.52 56.6,24 l -169.6,292.71" /></g><g
         transform="scale(1.31073)"
         id="g318"><path
           id="path320"
           style="fill:#233862;fill-opacity:1;fill-rule:nonzero;stroke:none"
           d="m 16171,3532.92 c 129,-169.22 0,-1512.21 0,-1512.21 l -147,-151.29 c 0,0 -255.3,1325.9 -324.6,1533.64 -31.5,94.46 -77.3,497.82 -117.9,909.65 122.4,-54.63 421.1,-173.57 666.5,-157.39 -31.3,-130.23 -60.5,-250.93 -78.8,-352.02 -23.9,-131.45 -29.6,-229.26 1.8,-270.38" /></g><g
         transform="scale(1.31734)"
         id="g322"><path
           id="path324"
           style="fill:#233862;fill-opacity:1;fill-rule:nonzero;stroke:none"
           d="m 16236.8,1793.09 -78.9,-42.74 c -28.7,-10.1 -52.3,-13.06 -81.3,-24.14 -44.1,-16.85 -75.1,-50.1 -76.6,-56.02 -22.2,-90.49 -53.8,-84.72 -53.8,-84.72 l -316.8,-2.96 c -15,7.44 10.4,71.43 22.5,83.35 30,29.53 119.6,14.65 152.3,107.41 18.5,52.15 109.3,214.22 109.3,214.22 l 0.7,0.54 c 3.1,1.59 19.9,5.01 111.5,-14.05 47.3,-9.79 66.8,86.24 66.8,86.24 0,0 15.1,-2.96 31.5,-14.81 13.1,-9.26 27.1,-24.14 35,-47.52 11.4,-32.86 57.9,-80.23 91.3,-111.2 20.2,-18.76 35.7,-31.51 35.7,-31.51 0,0 14,-16.93 -49.2,-62.09" /></g><g
         transform="scale(1.05485)"
         id="g326"><path
           id="path328"
           style="fill:#4a75cb;fill-opacity:1;fill-rule:nonzero;stroke:none"
           d="M 16300,1963.31 H 14619.9 V 6802.66 H 16300 V 1963.31" /></g><path
         id="path330"
         style="fill:#739af0;fill-opacity:1;fill-rule:nonzero;stroke:none"
         d="m 15421.8,2071 h -4682.2 v 5104.8 h 4682.2 V 2071" /><path
         id="path332"
         style="fill:#afcdfb;fill-opacity:1;fill-rule:nonzero;stroke:none"
         d="m 10739.6,4321.3 v 357.3 h 4682.2 v -357.3 h -4682.2" /><g
         transform="scale(1.05485)"
         id="g334"><path
           id="path336"
           style="fill:#88b3ff;fill-opacity:1;fill-rule:nonzero;stroke:none"
           d="m 14619.9,4096.59 v 338.72 H 16300 v -338.72 h -1680.1" /></g><g
         transform="scale(1.01786)"
         id="g338"><path
           id="path340"
           style="fill:#4a75cb;fill-opacity:1;fill-rule:nonzero;stroke:none"
           d="m 13906.8,7127.07 c 0,0 1410.2,640.07 2393.2,396.82 l -196.3,-131.36 98.9,-231.85 c 0,0 -1093.6,285.1 -2324.1,-71.43 l 28.3,37.82" /></g><path
         id="path342"
         style="fill:#72a9f7;fill-opacity:1;fill-rule:nonzero;stroke:none"
         d="m 13909.3,7279.4 c 0,0 -186.6,22.6 -464.8,60.8 -738.5,101.6 -2121.8,314.1 -2370,510.8 -390.2,308.9 534.3,1621 934.4,1803.1 400.2,181.9 1900.4,-2374.7 1900.4,-2374.7" /><g
         transform="scale(1.03697)"
         id="g344"><path
           id="path346"
           style="fill:#72a9f7;fill-opacity:1;fill-rule:nonzero;stroke:none"
           d="m 16235.7,8595.43 c 64.3,-313.41 -2848.8,-1667.64 -2848.8,-1667.64 0,0 53,143.3 139.2,367.7 0,0 0.1,0.2 0.2,0.39 315,819.6 1073.7,2721.52 1323,2695.17 25.1,-2.6 54.4,-11.56 87.1,-25.89 383,-168.5 1240.1,-1081 1299.3,-1369.73" /></g><path
         id="path348"
         style="fill:#4a75cb;fill-opacity:1;fill-rule:nonzero;stroke:none"
         d="m 15463.1,10044.5 c -184.5,-320.4 -1417.4,-2445.7 -1436.7,-2478.9 326.6,849.9 1113.4,2822.1 1371.9,2794.8 0,0 51.2,1.5 90.3,-26.8 47.1,-34.4 76.4,-112.1 -25.5,-289.1" /><path
         id="path350"
         style="fill:#4a75cb;fill-opacity:1;fill-rule:nonzero;stroke:none"
         d="m 13445,7340.2 h -0.5 c -738.5,101.6 -2121.8,314.1 -2370,510.8 -112.2,315.7 178.7,341.5 390.4,363.7 211.5,22.2 1980.1,-874.5 1980.1,-874.5" /><path
         id="path352"
         style="fill:#4a75cb;fill-opacity:1;fill-rule:nonzero;stroke:none"
         d="m 13345.9,7178.8 c 0,0 169.3,385.2 502.6,406.6 348.1,22.2 545.8,-406.6 545.8,-406.6 h -1048.4" /><path
         id="path354"
         style="fill:#88b3ff;fill-opacity:1;fill-rule:nonzero;stroke:none"
         d="m 15496.9,6473.7 h -4899.2 v 702.1 h 4899.2 v -702.1" /><g
         transform="scale(1.06402)"
         id="g356"><path
           id="path358"
           style="fill:#3969b7;fill-opacity:1;fill-rule:nonzero;stroke:none"
           d="m 16300,6084.2 h -1735.5 v 659.86 H 16300 V 6084.2" /></g><path
         id="path360"
         style="fill:#4a75cb;fill-opacity:1;fill-rule:nonzero;stroke:none"
         d="m 13516.9,7234.7 c 0,0 -959.6,303.9 -1607.1,103 -746.3,-231.7 -702.1,-1152.6 -702.1,-1152.6 l 175.5,72.1 237,-111.1 c 0,0 40,975.1 648.5,1111.7 526.1,118 1248.2,-23.1 1248.2,-23.1" /><path
         id="path362"
         style="fill:#afcdfb;fill-opacity:1;fill-rule:nonzero;stroke:none"
         d="m 13024.6,2027 h -357.3 v 5148.8 h 357.3 V 2027" /><path
         id="path364"
         style="fill:#233862;fill-opacity:1;fill-rule:nonzero;stroke:none"
         d="m 5069.67,9272 c 0,0 1319.75,-967.2 1642.59,-943.9 322.83,23.3 1466.09,728.8 1466.09,728.8 l -241.86,287.5 c 0,0 -1035.42,-383.6 -1225,-277.8 -189.58,105.8 -930.07,1003.5 -1240.76,955.6 -310.69,-48 -617.66,-402.5 -401.06,-750.2" /><path
         id="path366"
         style="fill:#233862;fill-opacity:1;fill-rule:nonzero;stroke:none"
         d="m 4291.38,2005 h -394.52 c -49.67,27 -93.92,88.7 -107.9,180.7 -19.27,127.2 -161.72,196.4 -192.55,300.4 -30.76,103.9 127.1,250.2 127.1,250.2 l 26.41,34.1 27.47,35.3 261.85,-61.6 c 0,0 6.49,-62.4 10.42,-141.9 2.85,-57.3 4.35,-123.5 1.14,-181.6 -7.71,-138.6 38.75,-287.9 161.93,-314.9 91.06,-19.9 87,-73.9 78.65,-100.7" /><path
         id="path368"
         style="fill:#233862;fill-opacity:1;fill-rule:nonzero;stroke:none"
         d="m 6580.97,2005 h -902.22 c -43.39,52.9 -27.4,248.3 -20.84,312.1 1.36,12.9 2.29,20.4 2.29,20.4 0,0 308.09,246.4 350.41,57.7 1.28,-5.9 2.85,-11.7 4.57,-17.4 53.31,-176.5 292.46,-256.7 430.55,-279.1 89.78,-14.5 122.97,-61.2 135.24,-93.7" /><path
         id="path370"
         style="fill:#f99746;fill-opacity:1;fill-rule:nonzero;stroke:none"
         d="m 6409.07,7041.1 c 0,0 -46.78,-583.7 -101.77,-1285.3 -74.74,-953.1 -164.6,-2123.8 -173.5,-2345.6 -15.36,-385.1 -77.04,-1001.1 -77.04,-1001.1 0,0 -146.24,-146.3 -438.94,-84.7 0,0 -260.83,879.4 -335.33,1809.9 -1.16,15.2 -2.31,30.6 -3.47,45.9 -69.3,947.2 -177.08,2941.7 -177.08,2941.7 l 1307.13,-80.8" /><path
         id="path372"
         style="fill:#ed7d2b;fill-opacity:1;fill-rule:nonzero;stroke:none"
         d="m 6409.07,7041.1 c 0,0 -46.78,-583.7 -101.77,-1285.3 L 5282.49,4134.3 c -1.16,15.2 -2.31,30.6 -3.47,45.9 -69.3,947.2 -177.08,2941.7 -177.08,2941.7 l 1307.13,-80.8" /><path
         id="path374"
         style="fill:#f99746;fill-opacity:1;fill-rule:nonzero;stroke:none"
         d="m 6195.42,6971.8 c 0,0 -843.22,-2113.9 -1397.68,-3107.3 -554.44,-993.4 -727.71,-1270.6 -727.71,-1270.6 0,0 -317.66,127.1 -346.53,213.7 0,0 212.02,1917.8 583.33,2385.3 209.81,264.2 456.26,1056.9 467.81,1334.2 11.56,277.2 75.09,825.8 75.09,825.8 l 1345.69,-381.1" /><path
         id="path376"
         style="fill:#ffb27d;fill-opacity:1;fill-rule:nonzero;stroke:none"
         d="m 5639.6,9981.5 c -314.69,-142.6 -914.32,67.8 -914.32,67.8 0,0 274.34,262.7 201.81,731.5 l 277.52,-173.4 188.51,-117.7 c 0,0 9.13,-81.8 7.59,-227.1 -0.42,-38.2 -1.54,-80.9 -3.8,-127.7 149.72,-60.1 242.69,-153.4 242.69,-153.4" /><path
         id="path378"
         style="fill:#ed975d;fill-opacity:1;fill-rule:nonzero;stroke:none"
         d="m 5393.12,10489.7 c 0,0 9.13,-81.8 7.59,-227.1 -194.32,9.8 -447.37,291.4 -447.37,291.4 93.55,39.7 177.83,55 251.27,53.4 l 188.51,-117.7" /><path
         id="path380"
         style="fill:#ffb27d;fill-opacity:1;fill-rule:nonzero;stroke:none"
         d="m 5492.23,10509.5 c 0,0 -529.54,-154.9 -620.93,176.3 -91.38,331.3 -221.28,534.4 112.96,647.3 334.24,112.9 435.08,4.7 492.48,-98.5 57.39,-103.1 150.89,-676.3 15.49,-725.1" /><path
         id="path382"
         style="fill:#2b478b;fill-opacity:1;fill-rule:nonzero;stroke:none"
         d="m 6441.94,7249.2 c 16.51,-152.6 24.2,-247.7 20.52,-251.5 -8.89,-9.4 -19.69,-15.7 -32.83,-17.3 -122.99,-13.1 -473.03,-124.4 -779.92,-129.9 -258.53,-6.3 -493.82,42.1 -749.86,121.8 -33.95,10.6 -113.03,41.3 -115.63,77.5 -3.7,39.6 -6.66,97.4 -10.46,170 -13,252.8 -34.97,687.6 -124.23,1181.6 -16.39,92 -30.15,183.6 -41.4,274 -83.81,673.9 -21.56,1283 222.85,1516.2 21.05,19.2 170.16,-32.7 307.27,-80.9 126.77,-44.6 247.09,-36.8 357.35,-0.2 l 125.06,-86.3 c 153.08,-111.2 324.71,-266.7 421.96,-522.6 82.86,-217.7 164.3,-618.4 232.86,-1035.5 31.05,-189.2 60.77,-380 84.31,-561.6 l 0.79,-6.6 c 3.8,-17.8 6.18,-37.6 8.35,-55.6 4.37,-32.3 8.54,-64 12.66,-95.2 25.5,-194 46.12,-367.1 60.35,-497.9" /><path
         id="path384"
         style="fill:#2b478b;fill-opacity:1;fill-rule:nonzero;stroke:none"
         d="m 4866.95,10718.3 c 0,0 54.33,15.9 36.18,91.2 -18.14,75.3 -30.07,175.2 34.28,164 64.34,-11.1 73.42,-60.4 95.44,-28.3 22.02,32.1 7.74,154.5 191.48,185.2 183.75,30.8 266.59,-24.4 347.96,23.7 81.38,48.1 70.24,178.7 70.24,178.7 0,0 -18.84,-49.4 -53.98,-68.6 0,0 119.73,213.4 -62.44,327.8 -182.17,114.5 -340.79,6.1 -436.15,-11.3 -210.08,-38.4 -345.25,-67.5 -397.62,-214.9 -52.37,-147.4 22.68,-530.1 174.61,-647.5" /><path
         id="path386"
         style="fill:#233862;fill-opacity:1;fill-rule:nonzero;stroke:none"
         d="m 6441.94,7249.2 c -25.96,-4.7 -477.56,-85.8 -784.59,116.4 -316.12,208.2 -686.44,1442.7 -686.44,1442.7 0,0 710.01,-789.6 723.79,-820.7 11.54,-26.3 523.55,-189 686.89,-240.5 25.5,-194 46.12,-367.1 60.35,-497.9" /><path
         id="path388"
         style="fill:#ed7d2b;fill-opacity:1;fill-rule:nonzero;stroke:none"
         d="m 10171.7,7698.9 -3512.28,-50 -49.98,3512.3 3512.26,50 50,-3512.3" /><path
         id="path390"
         style="fill:#f99746;fill-opacity:1;fill-rule:nonzero;stroke:none"
         d="m 9422.14,7688.3 -3512.25,-50 -49.97,3512.2 3512.24,50 49.98,-3512.2" /><path
         id="path392"
         style="fill:#ffffff;fill-opacity:1;fill-rule:nonzero;stroke:none"
         d="m 8564.17,8904.9 c -2.23,157.4 -91.25,293.5 -225.21,291.6 -140.64,-2 -212.41,-137 -210.12,-297.8 2.24,-157.4 91.26,-293.4 225.21,-291.5 140.65,2 212.37,140.3 210.12,297.7 z m -786.95,-11.2 c -4.72,331.5 222.54,602.7 564.11,607.6 338.22,4.8 569.7,-256.5 574.46,-591.4 4.67,-328.1 -222.53,-602.7 -564.11,-607.5 -338.21,-4.9 -569.69,256.4 -574.46,591.3 z m -670.05,1189.6 c -2.24,157.4 -91.26,293.4 -225.21,291.5 -140.65,-2 -212.41,-137 -210.12,-297.7 2.23,-157.4 91.25,-293.5 225.2,-291.6 140.65,2 212.37,140.4 210.13,297.8 z m 1150.51,589.1 398.5,5.7 -1677.85,-2368.5 -398.5,-5.7 z m -1937.46,-600.3 c -4.72,331.5 222.53,602.7 564.1,607.5 338.22,4.8 569.7,-256.5 574.46,-591.3 4.67,-328.2 -222.53,-602.7 -564.1,-607.6 -338.22,-4.8 -569.69,256.5 -574.46,591.4" /><path
         id="path394"
         style="fill:#ffb27d;fill-opacity:1;fill-rule:nonzero;stroke:none"
         d="m 7628.98,7527.1 c -118.56,2.3 -270.64,53.2 -319.39,77.5 -82.4,41 -124.38,80.7 -124.38,80.7 l 12.51,78 15,93.3 c 0,0 9.16,1.4 24.38,3 15.13,1.6 36.45,3.2 60.61,3.7 0,0 39.03,-11.9 71.29,17 32.2,28.8 91.59,48.3 136.56,37.5 44.9,-10.8 141.5,-0.7 144.56,-16.4 7.58,-38 -133.17,-31.1 -149.62,-54.9 -14.88,-21.6 -1.33,-36.2 1.44,-38.8 0.21,-0.1 0.35,-0.3 0.56,-0.4 82.4,-83.1 366.01,-113.3 354.67,-179.3 -4.28,-24.6 -178.02,-101.8 -228.19,-100.9" /><path
         id="path396"
         style="fill:#2b478b;fill-opacity:1;fill-rule:nonzero;stroke:none"
         d="m 4754.68,9281.3 c 0,0 649.6,-1501.7 939.91,-1644.8 290.32,-143.2 1615,-31.9 1615,-31.9 l 8.75,256.3 c 0,0 -1140.94,226 -1251.03,413.1 -110.08,187.1 -295.03,1336 -587.32,1451.7 -292.28,115.8 -736.38,-34.9 -725.31,-444.4" /><g
         transform="scale(1.74517)"
         id="g398"><path
           id="path400"
           style="fill:#ffb93e;fill-opacity:1;fill-rule:nonzero;stroke:none"
           d="m 15888.8,3014.72 c -8.3,-5.04 -16.7,-9.91 -25.1,-14.56 -3,-1.6 -5.8,-3.21 -8.7,-4.69 -6.6,-3.5 -13.2,-6.88 -19.8,-10.2 -318.4,-156.38 -706.8,-36.33 -880,277.67 -165.1,299.52 -76.3,670.48 194.6,865.25 21.6,15.59 44.3,29.97 68.2,43.15 8.6,4.7 17.2,9.22 25.9,13.52 8.5,4.18 16.9,8.2 25.5,11.98 26.2,11.69 52.8,21.54 79.6,29.56 40,12.04 80.5,20.12 121.1,24.41 126,13.35 252.7,-9.68 365.1,-64.63 119.2,-58.28 222.2,-152.59 291.2,-277.62 173.6,-314.93 66.6,-708.76 -237.6,-893.84" /></g><g
         transform="scale(1.7318)"
         id="g402"><path
           id="path404"
           style="fill:#ffa412;fill-opacity:1;fill-rule:nonzero;stroke:none"
           d="m 15664.2,4183.86 c -96.7,0 -192.9,-24.83 -278.2,-71.83 -135,-74.43 -233,-197.02 -275.9,-345.13 -42.8,-148.18 -25.4,-304.14 49,-439.14 101.6,-184.26 295.5,-298.71 506.1,-298.71 96.7,0 192.9,24.83 278.2,71.83 135,74.43 233,197.02 275.9,345.14 42.8,148.11 25.4,304.07 -49,439.13 -101.6,184.26 -295.5,298.71 -506.1,298.71 z m 1,-1191.48 c -223.9,0 -430.2,121.73 -538.1,317.71 -79.2,143.61 -97.7,309.44 -52.1,466.97 45.5,157.52 149.7,287.85 293.3,367.02 90.7,50 193,76.39 295.9,76.39 223.9,0 430.1,-121.72 538.2,-317.65 79.1,-143.61 97.6,-309.44 52,-466.97 -45.5,-157.52 -149.7,-287.91 -293.3,-367.07 -90.7,-49.95 -193,-76.4 -295.9,-76.4" /></g><g
         transform="scale(1.71085)"
         id="g406"><path
           id="path408"
           style="fill:#ffa412;fill-opacity:1;fill-rule:nonzero;stroke:none"
           d="m 15856.5,4108.19 137,-277.7 306.5,-44.54 -221.8,-216.15 52.4,-305.23 -274.1,144.14 -274.2,-144.14 52.4,305.23 -221.7,216.15 306.4,44.54 137.1,277.7" /></g><g
         transform="scale(1.7689)"
         id="g410"><path
           id="path412"
           style="fill:#ffb93e;fill-opacity:1;fill-rule:nonzero;stroke:none"
           d="m 16071,4579.69 c -4.6,-2.77 -9.3,-5.48 -14,-8.08 -1.6,-0.9 -3.2,-1.75 -4.8,-2.6 -3.7,-1.98 -7.3,-3.85 -11.1,-5.65 -177.2,-87.12 -393.5,-20.3 -489.9,154.56 -92,166.77 -42.5,373.33 108.3,481.82 12,8.65 24.7,16.68 38,23.97 4.8,2.66 9.6,5.2 14.4,7.58 4.7,2.31 9.4,4.57 14.2,6.67 14.6,6.5 29.4,11.98 44.4,16.45 22.2,6.67 44.8,11.19 67.4,13.57 70.1,7.46 140.7,-5.37 203.2,-35.96 66.4,-32.45 123.8,-84.97 162.2,-154.61 96.7,-175.37 37.1,-394.66 -132.3,-497.72" /></g><g
         transform="scale(1.76134)"
         id="g414"><path
           id="path416"
           style="fill:#ffa412;fill-opacity:1;fill-rule:nonzero;stroke:none"
           d="m 15947.1,5235.21 c -53.6,0 -107,-13.8 -154.3,-39.86 -74.9,-41.33 -129.3,-109.35 -153.1,-191.56 -23.8,-82.15 -14.1,-168.73 27.2,-243.67 56.4,-102.2 164,-165.73 280.9,-165.73 53.6,0 107,13.8 154.3,39.86 75,41.33 129.3,109.35 153.1,191.5 23.8,82.21 14.1,168.79 -27.2,243.68 -56.4,102.25 -164,165.78 -280.9,165.78 z m 0.7,-661.15 c -124.3,0 -238.8,67.51 -298.7,176.29 -43.9,79.66 -54.2,171.69 -28.9,259.12 25.3,87.44 83.1,159.77 162.8,203.65 50.3,27.77 107.1,42.41 164.1,42.41 124.3,0 238.8,-67.56 298.7,-176.28 44,-79.66 54.2,-171.69 28.9,-259.12 -25.2,-87.44 -83.1,-159.77 -162.7,-203.71 -50.4,-27.71 -107.1,-42.36 -164.2,-42.36" /></g><g
         transform="scale(1.74952)"
         id="g418"><path
           id="path420"
           style="fill:#ffa412;fill-opacity:1;fill-rule:nonzero;stroke:none"
           d="m 16055.2,5200.57 75.7,-153.3 169.1,-24.58 -122.4,-119.29 28.9,-168.45 -151.3,79.57 -151.2,-79.57 28.8,168.45 -122.4,119.29 169.2,24.58 75.6,153.3" /></g><g
         transform="scale(1.07387)"
         id="g422"><path
           id="path424"
           style="fill:#cde0fb;fill-opacity:1;fill-rule:nonzero;stroke:none"
           d="m 15953.1,15490.8 c -4.5,-5.5 -9,-10.9 -13.8,-16.3 -1.7,-1.8 -3.2,-3.6 -4.8,-5.3 -3.8,-4.1 -7.5,-8 -11.3,-11.9 -182.4,-186.3 -480.9,-198.1 -677.6,-22.8 -187.7,167.2 -216.8,445.9 -76.8,647.1 11.2,16.1 23.4,31.6 36.8,46.6 4.8,5.4 9.6,10.6 14.6,15.7 4.8,5 9.7,9.8 14.7,14.6 15.3,14.4 31.3,27.7 48,39.9 24.7,18.1 50.8,33.6 77.9,46.5 84,40.1 177.4,55.1 268.8,44.5 96.8,-11.3 191.4,-51.4 269.7,-121.2 197.2,-175.8 219.5,-474.8 53.8,-677.4" /></g><g
         transform="scale(1.07066)"
         id="g426"><path
           id="path428"
           style="fill:#afcdfb;fill-opacity:1;fill-rule:nonzero;stroke:none"
           d="m 15624,16267 c -8.4,0 -16.7,-0.3 -25,-0.7 -112.5,-6.5 -215.8,-56.5 -290.9,-140.7 -75,-84.2 -112.8,-192.6 -106.2,-305.2 6.4,-112.5 56.4,-215.9 140.6,-290.9 84.2,-75 192.6,-112.8 305.2,-106.2 112.6,6.4 215.9,56.4 290.9,140.6 75,84.2 112.8,192.6 106.3,305.2 -6.5,112.6 -56.5,215.9 -140.7,290.9 -77.9,69.5 -176.7,107 -280.2,107 z m -1.2,-871.3 c -110.2,0 -215.2,39.9 -298.1,113.8 -89.6,79.8 -142.7,189.7 -149.5,309.4 -6.9,119.7 33.1,235 112.9,324.5 79.8,89.6 189.7,142.7 309.4,149.6 119.7,7 235,-33.2 324.6,-113 89.5,-79.8 142.6,-189.6 149.5,-309.4 6.9,-119.7 -33.2,-235 -113,-324.5 -79.8,-89.6 -189.6,-142.7 -309.3,-149.6 -8.9,-0.5 -17.8,-0.8 -26.5,-0.8" /></g><g
         transform="scale(1.06124)"
         id="g430"><path
           id="path432"
           style="fill:#afcdfb;fill-opacity:1;fill-rule:nonzero;stroke:none"
           d="m 15651.1,16300 161.5,-157.6 221.5,43.7 -100,-202.4 110.1,-197.1 -223.4,32.6 -153.5,-165.5 -38,222.4 -204.9,94.8 199.9,105 26.8,224.1" /></g><path
         id="path434"
         style="fill:#cde0fb;fill-opacity:1;fill-rule:nonzero;stroke:none"
         d="m 15588.8,2430.4 c -8.6,-10.6 -17.5,-21 -26.6,-31.2 -3.1,-3.5 -6.2,-6.9 -9.3,-10.3 -7.1,-7.7 -14.3,-15.3 -21.6,-22.8 -349.8,-357.2 -922.4,-379.8 -1299.7,-43.6 -359.9,320.6 -416,855.3 -147.2,1241.2 21.4,30.9 44.9,60.7 70.4,89.4 9.2,10.2 18.6,20.3 28.1,30.1 9.2,9.5 18.7,18.9 28.2,27.9 29.4,27.8 60.1,53.3 92,76.6 47.5,34.7 97.5,64.5 149.5,89.2 161.2,76.8 340.4,105.7 515.5,85.3 185.8,-21.5 367.1,-98.5 517.3,-232.4 378.4,-337.1 421,-910.7 103.4,-1299.4" /><path
         id="path436"
         style="fill:#afcdfb;fill-opacity:1;fill-rule:nonzero;stroke:none"
         d="m 14867.9,3826.2 c -15.8,0 -31.6,-0.5 -47.6,-1.4 -215.3,-12.4 -412.9,-107.9 -556.3,-269 -143.5,-161 -215.7,-368.3 -203.3,-583.6 12.5,-215.3 108,-412.9 269,-556.4 161.1,-143.4 368.4,-215.6 583.6,-203.2 215.4,12.4 412.9,108 556.4,269 143.5,161.1 215.7,368.3 203.2,583.6 -12.4,215.3 -107.9,412.9 -268.9,556.4 -149.2,132.9 -338,204.6 -536.1,204.6 z m -2.2,-1666.2 c -210.7,0 -411.4,76.3 -570,217.6 -171.3,152.6 -272.9,362.7 -286.1,591.7 -13.2,229 63.5,449.4 216.1,620.6 152.6,171.3 362.7,272.8 591.7,286 228.8,13.4 449.4,-63.5 620.6,-216.1 171.3,-152.5 272.9,-362.6 286.1,-591.6 13.2,-229 -63.6,-449.4 -216.1,-620.7 -152.6,-171.2 -362.7,-272.8 -591.7,-286 -16.9,-1 -33.8,-1.5 -50.6,-1.5" /><path
         id="path438"
         style="fill:#afcdfb;fill-opacity:1;fill-rule:nonzero;stroke:none"
         d="m 14656.5,3614.9 306.2,-298.8 419.8,82.9 -189.6,-383.6 208.6,-373.6 -423.4,61.7 -290.9,-313.8 -72.1,421.8 -388.4,179.7 378.9,198.9 50.9,424.8" /><g
         transform="scale(1.77998)"
         id="g440"><path
           id="path442"
           style="fill:transparent;fill-opacity:1;fill-rule:nonzero;stroke:none"
           d="M 16282.4,1130.07 H 821.054 c -9.658,0 -17.556,7.92 -17.556,17.58 v 5.96 c 0,9.66 7.898,17.58 17.556,17.58 H 16282.4 c 9.7,0 17.6,-7.92 17.6,-17.58 v -5.96 c 0,-9.66 -7.9,-17.58 -17.6,-17.58" /></g><g
         transform="scale(1.13752)"
         id="g444"><path
           id="path446"
           style="fill:#6bb7bf;fill-opacity:1;fill-rule:nonzero;stroke:none"
           d="m 16300,7477.92 c 0,0 -114.7,-78.24 -242.3,-65.4 -94.7,9.58 -187.9,97.23 -191.5,103.03 l -75.5,-131.16 c 0,0 172.6,-104.7 320.6,-76.05 45.2,8.79 118.7,53.81 152,87.56 36.5,37.19 36.7,82.02 36.7,82.02" /></g><g
         transform="scale(1.15054)"
         id="g448"><path
           id="path450"
           style="fill:#86d1cd;fill-opacity:1;fill-rule:nonzero;stroke:none"
           d="m 16112.5,7663.53 187.5,77.62 c 0,0 -25.7,-389.65 -347.8,-508.72 0,0 203.5,266.75 160.3,431.1" /></g><g
         transform="scale(1.24237)"
         id="g452"><path
           id="path454"
           style="fill:#f99746;fill-opacity:1;fill-rule:nonzero;stroke:none"
           d="m 16139.7,2783.38 c 0,0 75.8,-85.88 150.4,-84.19 0,0 9.9,-93.93 -17.1,-118.89 0,0 -127.6,23.34 -158.4,69.95 0,0 -25.7,112.04 25.1,133.13" /></g><g
         transform="scale(1.13949)"
         id="g456"><path
           id="path458"
           style="fill:#cde0fb;fill-opacity:1;fill-rule:nonzero;stroke:none"
           d="m 16300,4322.02 c 0,0 -74.9,90.83 -73.8,199.47 0.9,80.74 67.7,166.22 72.3,169.73 l -116.5,53.62 c 0,0 -75.2,-153.75 -39.6,-276.44 10.9,-37.56 54.5,-96.18 85.6,-121.63 34.2,-28 72,-24.75 72,-24.75" /></g><g
         transform="scale(1.16126)"
         id="g460"><path
           id="path462"
           style="fill:#cde0fb;fill-opacity:1;fill-rule:nonzero;stroke:none"
           d="m 16220.7,4264.08 79.3,-151.13 c 0,0 -328.4,-8.09 -452.8,252.66 0,0 239.1,-150.18 373.5,-101.53" /></g></g></g></svg>
