<svg width="13" height="17" viewBox="0 0 13 17" fill="none" xmlns="http://www.w3.org/2000/svg">
<path d="M10.1182 5.30632C7.1975 3.4602 8.56712 0.854516 8.62592 0.746207C8.71118 0.592078 8.7109 0.402455 8.62518 0.248592C8.5395 0.0947285 8.38137 0 8.21027 0C6.70684 0 5.52954 0.443793 4.71112 1.31913C3.31264 2.81473 3.37751 5.1425 3.40522 6.1365C3.40832 6.24664 3.41094 6.34176 3.41094 6.41245C3.41094 7.15049 3.52491 7.83182 3.62548 8.433C3.69029 8.82041 3.74625 9.15496 3.75622 9.41793C3.76687 9.69956 3.71736 9.76404 3.71529 9.76667C3.70822 9.7754 3.64939 9.80787 3.49042 9.80787C3.30909 9.80787 3.17544 9.74631 3.05697 9.60835C2.59434 9.06937 2.56235 7.59777 2.65081 6.79714C2.66663 6.65596 2.62364 6.51452 2.53266 6.4084C2.4417 6.30229 2.31144 6.24159 2.17469 6.24159C0.93006 6.24159 0 8.35623 0 10.247C0 11.1358 0.172097 12.0064 0.511466 12.8348C0.839553 13.6356 1.30736 14.3583 1.90205 14.9829C3.14041 16.2836 4.77328 17 6.49978 17C8.23328 17 9.86569 16.2938 11.0964 15.0115C12.3239 13.7325 13 12.0404 13 10.2469C13 7.95849 11.2766 6.03852 10.1182 5.30632Z" fill="#FF5252"/>
</svg>
