<svg width="20" height="15" viewBox="0 0 20 15" fill="none" xmlns="http://www.w3.org/2000/svg">
<path d="M15.1554 10.7634C15.0048 10.3038 14.6617 9.94512 14.2141 9.77938C13.7663 9.61378 13.2769 9.6644 12.8711 9.91846L9.70962 11.8977H6.26162C5.79483 11.8977 5.41507 11.5112 5.41507 11.0361V10.8637H8.46267C9.30288 10.8637 9.98647 10.1679 9.98647 9.31273C9.98647 8.45752 9.30288 7.76172 8.46267 7.76172H3.65423C2.25384 7.76172 0 8.92134 0 10.3467V12.4148C0 13.8401 2.25384 14.9998 3.65423 14.9998H10.6747L14.4968 12.6069C15.1136 12.2206 15.3845 11.4625 15.1554 10.7634Z" fill="#2BC3F3"/>
<path d="M7.38044 5.08131L10.5419 3.10202H13.9899C14.4567 3.10202 14.8365 3.48856 14.8365 3.96369V4.13603H11.7889C10.9487 4.13603 10.2651 4.83183 10.2651 5.68704C10.2651 6.54225 10.9487 7.23805 11.7889 7.23805H16.5973C17.9977 7.23805 20 6.07843 20 4.65303V2.58502C20 1.15962 17.9977 0 16.5973 0H9.57685L5.75479 2.39289C5.13799 2.77916 4.86709 3.53717 5.09619 4.2362C5.24685 4.69585 5.58997 5.05465 6.03746 5.22039C6.4852 5.38613 6.97462 5.33537 7.38044 5.08131Z" fill="#2BC3F3"/>
</svg>
