<svg width="20" height="15" xmlns="http://www.w3.org/2000/svg">

 <g>
  <title>background</title>
  <rect fill="none" id="canvas_background" height="602" width="802" y="-1" x="-1"/>
 </g>
 <g>
  <title>Layer 1</title>
  <path id="svg_1" fill="#2BC3F3" d="m15.1554,10.7634c-0.1506,-0.4596 -0.4937,-0.81828 -0.9413,-0.98402c-0.4478,-0.1656 -0.9372,-0.11498 -1.343,0.13908l-3.16148,1.97924l-3.448,0c-0.46679,0 -0.84655,-0.3865 -0.84655,-0.8616l0,-0.1724l3.0476,0c0.84021,0 1.5238,-0.6958 1.5238,-1.55097c0,-0.85521 -0.68359,-1.55101 -1.5238,-1.55101l-4.80844,0c-1.40039,0 -3.65423,1.15962 -3.65423,2.58498l0,2.0681c0,1.4253 2.25384,2.585 3.65423,2.585l7.02047,0l3.8221,-2.3929c0.6168,-0.3863 0.8877,-1.1444 0.6586,-1.8435z"/>
  <path id="svg_2" fill="#2BC3F3" d="m7.38044,5.08131l3.16146,-1.97929l3.448,0c0.4668,0 0.8466,0.38654 0.8466,0.86167l0,0.17234l-3.0476,0c-0.8402,0 -1.5238,0.6958 -1.5238,1.55101c0,0.85521 0.6836,1.55101 1.5238,1.55101l4.8084,0c1.4004,0 3.4027,-1.15962 3.4027,-2.58502l0,-2.06801c0,-1.4254 -2.0023,-2.58502 -3.4027,-2.58502l-7.02045,0l-3.82206,2.39289c-0.6168,0.38627 -0.8877,1.14428 -0.6586,1.84331c0.15066,0.45965 0.49378,0.81845 0.94127,0.98419c0.44774,0.16574 0.93716,0.11498 1.34298,-0.13908z"/>
  <text stroke="#000" transform="matrix(2.3638829597634157,0,0,2.1775938698004422,-17.447553447176098,-0.9819642624639625) " xml:space="preserve" text-anchor="start" font-family="'Courier New', Courier, monospace" font-size="15" id="svg_5" y="7.05946" x="7.05388" fill-opacity="null" stroke-opacity="null" stroke-width="0" fill="#000000">o</text>
  <line stroke="#000" stroke-linecap="null" stroke-linejoin="null" id="svg_6" y2="3.12197" x2="14.56311" y1="11.85983" x1="4.46602" fill-opacity="null" stroke-opacity="null" fill="none"/>
 </g>
</svg>