<svg width="20" height="10" viewBox="0 0 20 10" fill="none" xmlns="http://www.w3.org/2000/svg">
<path d="M19.8941 4.14714C19.6965 3.51209 19.2461 3.01656 18.6585 2.78757C18.0708 2.55878 17.4283 2.62872 16.8956 2.97972L12.7456 5.71429H8.21949C7.60674 5.71429 7.10824 5.18025 7.10824 4.52381V4.28571H11.1088C12.2117 4.28571 13.109 3.3244 13.109 2.14286C13.109 0.961309 12.2117 0 11.1088 0H4.79683C2.95857 0 0 1.60212 0 3.57143V6.42857C0 8.39788 2.95857 10 4.79683 10H14.0124L19.0296 6.69401C19.8392 6.16034 20.1948 5.11291 19.8941 4.14714Z" fill="#FFC83C"/>
</svg>
