<svg width="20" height="18" viewBox="0 0 20 18" fill="none" xmlns="http://www.w3.org/2000/svg">
<path d="M10.6441 5.54494C10.8028 5.23708 10.7501 4.88452 10.5063 4.62476L6.87279 0.752701C6.75412 0.626221 6.58051 0.553711 6.39626 0.553711C6.21224 0.553711 6.03852 0.626221 5.91996 0.752701L2.28646 4.62476C2.0427 4.88462 1.98971 5.23718 2.14867 5.54504C2.30923 5.85609 2.64706 6.04952 3.03055 6.04952H3.74489L4.25541 9.72208C4.38874 10.6808 5.30907 11.4036 6.39626 11.4036C7.48345 11.4036 8.4039 10.6808 8.53711 9.72208L9.04774 6.04952H9.76197C10.1456 6.04952 10.4835 5.85609 10.6441 5.54494Z" fill="#0069E3"/>
<path d="M17.586 12.8586C17.4253 12.5475 17.0875 12.3541 16.7039 12.3541H15.9898L15.4792 8.68153C15.3458 7.72283 14.4254 7 13.3382 7C12.251 7 11.3308 7.72283 11.1975 8.68153L10.6868 12.3541H9.9725C9.58901 12.3541 9.25118 12.5475 9.09051 12.8587C8.93166 13.1665 8.98453 13.5191 9.22841 13.7788L12.8621 17.6511C12.9808 17.7774 13.1543 17.8499 13.3382 17.8499C13.5223 17.8499 13.6958 17.7774 13.8145 17.6511L17.4482 13.7788C17.692 13.519 17.7447 13.1664 17.586 12.8586Z" fill="#0069E3"/>
</svg>
